<?xml version="1.0" encoding="iso-8859-1"?>
<!-- Generator: Adobe Illustrator 19.0.0, SVG Export Plug-In . SVG Version: 6.00 Build 0)  -->
<svg xmlns="http://www.w3.org/2000/svg" xmlns:xlink="http://www.w3.org/1999/xlink" version="1.1" id="Capa_1" x="0px" y="0px" viewBox="0 0 512 512" style="enable-background:new 0 0 512 512;" xml:space="preserve" width="112px" height="112px">
<g>
	<g>
		<path d="M414.249,191.836c-1.28-5.373-6.678-8.683-12.045-7.412c-5.373,1.278-8.691,6.671-7.413,12.044    c2.567,10.781,3.869,21.952,3.869,33.202c0,25.78-6.902,50.921-19.962,72.703c-2.84,4.736-1.302,10.879,3.436,13.719    c1.61,0.965,3.382,1.425,5.132,1.425c3.398,0,6.712-1.733,8.587-4.86c14.921-24.888,22.808-53.584,22.808-82.986    C418.661,216.863,417.177,204.134,414.249,191.836z" fill="#5a2b81"/>
	</g>
</g>
<g>
	<g>
		<path d="M402.549,158.551c-0.12-0.64-0.32-1.27-0.57-1.88c-0.25-0.601-0.56-1.18-0.92-1.72c-0.359-0.551-0.779-1.061-1.24-1.521    c-0.46-0.46-0.97-0.88-1.52-1.24c-0.54-0.37-1.12-0.67-1.73-0.92c-0.6-0.25-1.229-0.45-1.869-0.58c-1.29-0.26-2.61-0.25-3.9,0    c-0.64,0.129-1.27,0.33-1.87,0.58c-0.61,0.25-1.189,0.55-1.729,0.92c-0.551,0.36-1.061,0.78-1.521,1.24    c-0.46,0.46-0.88,0.97-1.25,1.521c-0.36,0.54-0.66,1.119-0.91,1.72c-0.25,0.61-0.45,1.24-0.58,1.88    c-0.13,0.64-0.189,1.3-0.189,1.95c0,0.649,0.06,1.31,0.189,1.95c0.13,0.64,0.33,1.27,0.58,1.869c0.25,0.61,0.561,1.19,0.92,1.73    c0.36,0.55,0.78,1.06,1.24,1.52c0.46,0.461,0.97,0.881,1.521,1.24c0.54,0.36,1.119,0.67,1.729,0.92    c0.601,0.25,1.23,0.45,1.87,0.58c0.64,0.13,1.3,0.19,1.95,0.19c0.649,0,1.31-0.061,1.95-0.19c0.64-0.13,1.27-0.33,1.869-0.58    c0.61-0.25,1.19-0.56,1.73-0.92c0.55-0.359,1.06-0.779,1.52-1.24c0.461-0.46,0.881-0.97,1.24-1.52c0.36-0.54,0.67-1.12,0.92-1.73    c0.25-0.6,0.45-1.229,0.57-1.869c0.13-0.641,0.2-1.301,0.2-1.95C402.749,159.851,402.679,159.19,402.549,158.551z" fill="#5a2b81"/>
	</g>
</g>
<g>
	<g>
		<path d="M408.021,371.2c0.015-2.094-0.635-4.118-1.821-5.809c33.902-37.235,52.461-85.054,52.461-135.721    c0-50.667-18.559-98.486-52.461-135.721c1.186-1.691,1.836-3.716,1.821-5.809c-0.02-2.677-1.111-5.234-3.031-7.101    c-9.797-9.52-20.552-18.092-31.966-25.477c-0.016-0.01-0.033-0.018-0.049-0.029C339.497,33.877,300.634,22.43,260.58,22.43    c-1.115,0-2.24,0.01-3.373,0.03V10c0-5.522-4.478-10-10-10h-32.655c-5.522,0-10,4.478-10,10v20.132    c-46.4,12.992-86.834,41.779-114.484,81.717C66.039,146.56,53.34,187.302,53.34,229.67c0,41.908,12.449,82.28,36.002,116.75    c12.129,17.761,27.204,33.733,44.252,47.001L84.958,497.775c-1.443,3.098-1.205,6.717,0.631,9.599    c1.837,2.882,5.017,4.626,8.434,4.626h303.259c5.522,0,10-4.478,10-10V397.557c0-5.522-4.478-10-10-10h-2.49    c3.497-2.976,6.906-6.057,10.198-9.256C406.909,376.435,408.001,373.877,408.021,371.2z M383.583,88.506l-89.873,89.873    c-0.951,0.951-1.865,1.926-2.752,2.917c-0.292,0.326-0.566,0.662-0.852,0.992c-0.583,0.675-1.161,1.352-1.716,2.043    c-0.319,0.397-0.623,0.802-0.932,1.204c-0.493,0.642-0.979,1.287-1.448,1.942c-0.308,0.43-0.607,0.864-0.905,1.299    c-0.443,0.648-0.875,1.302-1.294,1.962c-0.282,0.443-0.561,0.886-0.833,1.334c-0.412,0.679-0.806,1.365-1.193,2.054    c-0.245,0.436-0.493,0.869-0.728,1.308c-0.403,0.754-0.782,1.516-1.156,2.28c-0.188,0.383-0.386,0.763-0.567,1.149    c-0.509,1.088-0.991,2.185-1.443,3.292c-0.027,0.067-0.059,0.132-0.086,0.199c-0.475,1.172-0.912,2.355-1.323,3.546    c-0.025,0.071-0.055,0.141-0.079,0.212c-0.014-0.027-0.03-0.052-0.044-0.078c-0.978-1.875-2.065-3.683-3.259-5.414    c-0.104-0.151-0.214-0.298-0.319-0.449c-0.462-0.654-0.938-1.296-1.428-1.927c-0.186-0.24-0.372-0.478-0.562-0.714    c-0.468-0.58-0.95-1.149-1.443-1.708c-0.176-0.2-0.345-0.407-0.524-0.605c-0.603-0.663-1.226-1.308-1.863-1.939    c-0.334-0.332-0.68-0.653-1.023-0.976c-0.349-0.328-0.701-0.652-1.059-0.97c-0.387-0.344-0.777-0.685-1.175-1.018    c-0.336-0.281-0.68-0.551-1.023-0.822c-0.716-0.569-1.449-1.118-2.197-1.649c-0.364-0.258-0.724-0.52-1.094-0.769    c-0.154-0.103-0.298-0.217-0.453-0.318L368.821,76.872C373.922,80.495,378.854,84.382,383.583,88.506z M293.71,280.96    l89.873,89.873c-4.729,4.125-9.661,8.012-14.762,11.634L258.937,272.584c0.155-0.101,0.299-0.215,0.453-0.318    c0.37-0.249,0.731-0.511,1.094-0.769c0.748-0.531,1.48-1.08,2.197-1.649c0.343-0.272,0.687-0.542,1.023-0.822    c0.398-0.333,0.788-0.674,1.175-1.018c0.358-0.318,0.71-0.642,1.059-0.97c0.344-0.323,0.689-0.643,1.023-0.976    c0.636-0.631,1.26-1.275,1.863-1.939c0.179-0.198,0.348-0.404,0.524-0.605c0.493-0.559,0.975-1.127,1.443-1.708    c0.19-0.236,0.376-0.475,0.562-0.714c0.491-0.631,0.967-1.273,1.428-1.927c0.106-0.15,0.215-0.297,0.319-0.449    c1.194-1.73,2.281-3.539,3.259-5.414c0.014-0.026,0.03-0.052,0.044-0.078c0.024,0.071,0.054,0.141,0.079,0.212    c0.411,1.19,0.848,2.373,1.323,3.545c0.028,0.069,0.061,0.136,0.089,0.205c0.451,1.105,0.932,2.2,1.44,3.286    c0.181,0.386,0.379,0.765,0.567,1.149c0.374,0.765,0.754,1.527,1.156,2.28c0.235,0.439,0.484,0.872,0.728,1.308    c0.387,0.689,0.781,1.375,1.193,2.054c0.271,0.448,0.551,0.891,0.833,1.334c0.42,0.66,0.851,1.313,1.294,1.962    c0.297,0.435,0.597,0.869,0.905,1.299c0.469,0.655,0.955,1.3,1.448,1.942c0.309,0.402,0.613,0.807,0.932,1.204    c0.554,0.691,1.132,1.368,1.716,2.043c0.285,0.33,0.559,0.666,0.852,0.992C291.845,279.033,292.759,280.008,293.71,280.96z     M257.206,42.462c1.135-0.022,2.26-0.032,3.373-0.032c32.02,0,63.194,8.094,90.892,23.505L257.206,160.2V42.462z M224.552,37.854    V20h12.655v12.888v145.898c-0.116-0.014-0.233-0.019-0.349-0.032c-0.749-0.087-1.504-0.156-2.262-0.211    c-0.25-0.018-0.499-0.043-0.75-0.057c-0.983-0.056-1.971-0.092-2.967-0.092c-0.897,0-1.788,0.024-2.673,0.07    c-0.108,0.005-0.219,0.013-0.335,0.021c-0.312,0.018-0.622,0.052-0.933,0.075c-0.446,0.034-0.894,0.059-1.337,0.104    c-0.005,0-0.01,0-0.015,0.001c-0.176,0.019-0.35,0.04-0.545,0.067c-0.009,0.001-0.017,0.003-0.025,0.004    c-0.154,0.017-0.31,0.024-0.464,0.043V37.854z M206.682,209.876c0.047-0.057,0.094-0.114,0.141-0.17    c0.923-1.11,1.921-2.157,2.987-3.13c0.035-0.032,0.07-0.063,0.104-0.095c1.031-0.933,2.127-1.796,3.275-2.586    c0.166-0.114,0.333-0.226,0.502-0.337c0.402-0.266,0.811-0.523,1.226-0.771c0.387-0.23,0.777-0.456,1.176-0.67    c0.259-0.14,0.524-0.271,0.787-0.404c0.387-0.194,0.779-0.381,1.176-0.559c2.942-1.328,6.122-2.218,9.461-2.576    c0.058-0.007,0.115-0.014,0.177-0.022c0.384-0.039,0.771-0.064,1.159-0.089c0.004,0,0.007,0,0.011,0    c0.137-0.008,0.275-0.019,0.442-0.032c0.521-0.026,1.044-0.04,1.571-0.04c0.635,0,1.27,0.025,1.903,0.063    c0.16,0.01,0.319,0.024,0.478,0.036c0.282,0.022,0.563,0.055,0.845,0.084c0.037,0.004,0.073,0.013,0.11,0.017l0.64,0.06    c0.11,0.014,0.22,0.027,0.329,0.042c1.278,0.178,2.547,0.433,3.798,0.767c0.089,0.024,0.177,0.051,0.267,0.076    c0.766,0.212,1.52,0.449,2.259,0.716c0.035,0.013,0.07,0.023,0.105,0.036c0.691,0.252,1.363,0.538,2.028,0.835    c0.192,0.086,0.385,0.17,0.574,0.26c0.596,0.281,1.181,0.583,1.754,0.899c0.235,0.13,0.467,0.266,0.698,0.402    c0.458,0.268,0.907,0.548,1.349,0.838c0.292,0.192,0.58,0.391,0.866,0.593c0.386,0.273,0.766,0.553,1.138,0.843    c0.223,0.173,0.448,0.345,0.666,0.524c0.479,0.393,0.944,0.801,1.398,1.221c0.193,0.178,0.381,0.36,0.569,0.543    c0.471,0.458,0.934,0.925,1.375,1.411c0.099,0.109,0.192,0.223,0.289,0.333c0.422,0.479,0.83,0.97,1.222,1.474    c0.084,0.108,0.17,0.213,0.253,0.322c0.449,0.593,0.877,1.202,1.283,1.826c0.057,0.087,0.112,0.174,0.168,0.261    c1.314,2.061,2.393,4.276,3.2,6.609c0.012,0.034,0.023,0.068,0.035,0.102c0.526,1.539,0.932,3.129,1.214,4.755    c0.013,0.074,0.027,0.147,0.04,0.222c0.127,0.766,0.223,1.54,0.293,2.321c0.012,0.134,0.021,0.269,0.031,0.404    c0.06,0.788,0.1,1.58,0.1,2.38c0,0.8-0.04,1.593-0.1,2.38c-0.01,0.135-0.019,0.27-0.031,0.404    c-0.07,0.781-0.166,1.555-0.293,2.321c-0.012,0.074-0.027,0.148-0.04,0.222c-0.282,1.626-0.688,3.216-1.214,4.755    c-0.012,0.034-0.023,0.068-0.035,0.102c-0.806,2.332-1.886,4.548-3.2,6.609c-0.056,0.087-0.111,0.175-0.168,0.261    c-0.406,0.624-0.834,1.233-1.283,1.826c-0.083,0.109-0.169,0.214-0.253,0.322c-0.392,0.504-0.8,0.995-1.222,1.474    c-0.097,0.11-0.19,0.225-0.289,0.333c-0.441,0.487-0.904,0.953-1.375,1.411c-0.188,0.183-0.377,0.365-0.569,0.543    c-0.454,0.42-0.919,0.828-1.398,1.221c-0.218,0.179-0.443,0.351-0.666,0.524c-0.372,0.289-0.752,0.57-1.138,0.843    c-0.286,0.202-0.573,0.4-0.866,0.593c-0.442,0.29-0.891,0.57-1.349,0.838c-0.231,0.136-0.463,0.272-0.698,0.402    c-0.574,0.317-1.158,0.618-1.754,0.899c-0.19,0.09-0.383,0.174-0.575,0.26c-0.665,0.297-1.337,0.583-2.027,0.835    c-0.035,0.013-0.07,0.023-0.105,0.036c-0.739,0.266-1.493,0.504-2.259,0.716c-0.086,0.024-0.171,0.05-0.257,0.073    c-1.253,0.336-2.525,0.591-3.806,0.77c-0.138,0.019-0.276,0.035-0.414,0.053c-0.502,0.063-1.005,0.112-1.509,0.151    c-0.16,0.012-0.32,0.027-0.481,0.037c-0.634,0.039-1.268,0.063-1.903,0.063c-17.246,0-31.276-14.03-31.276-31.276    c0.001-0.7,0.032-1.394,0.078-2.084c0.011-0.174,0.025-0.347,0.04-0.52c0.052-0.629,0.119-1.254,0.209-1.874    c0.009-0.06,0.014-0.122,0.023-0.182c0.102-0.679,0.231-1.351,0.376-2.018c0.034-0.155,0.071-0.308,0.107-0.462    c0.131-0.56,0.277-1.115,0.438-1.665c0.035-0.119,0.066-0.24,0.102-0.359c0.188-0.614,0.398-1.218,0.623-1.817    c0.077-0.205,0.16-0.408,0.241-0.611c0.163-0.408,0.336-0.811,0.515-1.211c0.104-0.23,0.203-0.463,0.312-0.69    c0.238-0.497,0.491-0.986,0.754-1.469c0.172-0.313,0.352-0.621,0.534-0.928c0.122-0.207,0.248-0.412,0.375-0.616    C205.044,212.018,205.828,210.918,206.682,209.876z M105.856,335.139C84.583,304.006,73.34,267.535,73.34,229.67    c0-38.281,11.471-75.087,33.172-106.438c23.912-34.538,58.386-59.854,98.04-72.256v134.686c-1.502,0.898-2.931,1.887-4.32,2.922    c-0.007,0.005-0.014,0.01-0.02,0.015c-5.24,3.912-9.64,8.756-13.013,14.25c-0.092,0.149-0.184,0.297-0.274,0.447    c-0.347,0.579-0.686,1.162-1.01,1.755c-0.146,0.265-0.283,0.535-0.425,0.803c-0.373,0.711-0.733,1.427-1.072,2.156    c-0.284,0.607-0.564,1.217-0.825,1.837c-0.157,0.375-0.3,0.756-0.448,1.135c-0.223,0.568-0.439,1.139-0.642,1.716    c-0.124,0.354-0.245,0.708-0.361,1.065c-0.224,0.686-0.432,1.378-0.628,2.076c-0.071,0.253-0.148,0.503-0.215,0.757    c-0.256,0.969-0.486,1.949-0.685,2.94c-0.032,0.16-0.056,0.322-0.086,0.483c-0.16,0.834-0.299,1.674-0.417,2.521    c-0.042,0.3-0.078,0.601-0.115,0.903c-0.091,0.745-0.164,1.494-0.222,2.248c-0.023,0.296-0.05,0.592-0.068,0.889    c-0.061,1.023-0.102,2.052-0.102,3.09c0,28.273,23.003,51.276,51.276,51.276c0.776,0,1.552-0.024,2.326-0.059    c0.255-0.011,0.509-0.027,0.763-0.042c0.529-0.032,1.056-0.073,1.584-0.121c0.278-0.025,0.557-0.048,0.834-0.077    c0.69-0.075,1.379-0.16,2.065-0.262l107.173,107.173H159.896C138.689,373.992,120.047,355.919,105.856,335.139z M109.716,492    l7.689-16.5h197.472c5.522,0,10-4.478,10-10c0-5.522-4.478-10-10-10H126.727l6.757-14.5h253.798v51H109.716z M387.283,421    L387.283,421H142.806l6.266-13.443h238.211V421z M392.148,351.114l-84.296-84.296c-20.484-20.483-20.484-53.813,0-74.297    l84.296-84.296c30.065,33.426,46.512,76.176,46.512,121.444S422.214,317.688,392.148,351.114z" fill="#5a2b81"/>
	</g>
</g>
<g>
	<g>
		<path d="M361.68,463.55c-0.13-0.639-0.32-1.27-0.57-1.87c-0.25-0.61-0.56-1.189-0.92-1.729c-0.359-0.551-0.779-1.061-1.239-1.521    c-2.32-2.32-5.771-3.39-9.03-2.729c-0.63,0.119-1.26,0.319-1.87,0.569c-0.6,0.25-1.18,0.561-1.72,0.92    c-0.55,0.36-1.061,0.78-1.521,1.24c-0.46,0.46-0.88,0.97-1.25,1.521c-0.359,0.54-0.67,1.119-0.92,1.729    c-0.24,0.601-0.439,1.23-0.57,1.87c-0.13,0.64-0.189,1.3-0.189,1.95c0,2.63,1.07,5.21,2.93,7.069    c0.459,0.461,0.969,0.881,1.519,1.241c0.54,0.36,1.12,0.67,1.72,0.92c0.61,0.25,1.24,0.45,1.87,0.57c0.649,0.13,1.31,0.2,1.96,0.2    c2.63,0,5.21-1.07,7.07-2.931c1.859-1.859,2.93-4.439,2.93-7.069C361.88,464.85,361.81,464.189,361.68,463.55z" fill="#5a2b81"/>
	</g>
</g>
<g>
</g>
<g>
</g>
<g>
</g>
<g>
</g>
<g>
</g>
<g>
</g>
<g>
</g>
<g>
</g>
<g>
</g>
<g>
</g>
<g>
</g>
<g>
</g>
<g>
</g>
<g>
</g>
<g>
</g>
</svg>
