<?xml version="1.0" encoding="iso-8859-1"?>
<!-- Generator: Adobe Illustrator 19.0.0, SVG Export Plug-In . SVG Version: 6.00 Build 0)  -->
<svg xmlns="http://www.w3.org/2000/svg" xmlns:xlink="http://www.w3.org/1999/xlink" version="1.1" id="Capa_1" x="0px" y="0px" viewBox="0 0 511.998 511.998" style="enable-background:new 0 0 511.998 511.998;" xml:space="preserve" width="212px" height="212px">
<g>
	<g>
		<path d="M416.151,378.976l61.154-100.282c2.269-3.721,1.867-8.482-0.994-11.77l-0.245-0.282c-0.119-0.137-0.25-0.259-0.376-0.388    c-0.053-0.055-0.095-0.118-0.15-0.172l-60.909-60c-1.871-1.843-4.392-2.876-7.018-2.876H404.9    C399.426,180.03,378.653,163,353.991,163c-24.661,0-45.435,17.03-50.909,40.205h-11.558l-9.243-57.613    c5.563,1.344,11.363,2.075,17.333,2.075h29.331c21.926,0,26.572-42.381,27.517-63.833H368.5c5.522,0,10-4.477,10-10    s-4.478-10-10-10h-12.037C355.517,42.381,350.871,0,328.945,0h-29.331c-40.712,0-73.834,33.122-73.834,73.833    c0,5.125,0.527,10.128,1.526,14.962L208.674,202.2c-5.83-22.662-26.361-39.2-50.665-39.2c-24.661,0-45.435,17.03-50.909,40.205    h-2.713c-2.626,0-5.147,1.033-7.018,2.876l-60.91,60c-0.182,0.179-0.356,0.364-0.522,0.555c-0.002,0.002-0.004,0.004-0.005,0.005    l-0.245,0.282c-2.86,3.288-3.262,8.049-0.993,11.77l61.155,100.282c1.815,2.977,5.051,4.793,8.538,4.793h68.947v9.564h-61.762    c-32.716,0-59.333,26.617-59.333,59.333c0,32.717,26.617,59.333,59.333,59.333h288.856c32.717,0,59.334-26.617,59.334-59.333    s-26.617-59.333-59.334-59.333h-61.761v-9.564h68.946v0.001C411.1,383.769,414.336,381.953,416.151,378.976z M353.991,183    c13.543,0,25.193,8.307,29.99,20.205H324C328.798,191.307,340.448,183,353.991,183z M321.212,71.193    c0.003-0.281,0.009-0.557,0.013-0.835c0.009-0.589,0.019-1.176,0.033-1.756c0.007-0.318,0.016-0.633,0.025-0.948    c0.015-0.543,0.032-1.082,0.051-1.616c0.011-0.31,0.022-0.619,0.034-0.927c0.022-0.557,0.047-1.108,0.073-1.656    c0.013-0.265,0.024-0.532,0.038-0.795c0.036-0.708,0.076-1.408,0.119-2.101c0.006-0.094,0.01-0.19,0.016-0.284    c0.049-0.78,0.103-1.549,0.16-2.309c0.018-0.24,0.038-0.474,0.056-0.711c0.041-0.522,0.083-1.041,0.127-1.553    c0.024-0.276,0.049-0.548,0.074-0.82c0.043-0.475,0.088-0.946,0.134-1.412c0.027-0.268,0.053-0.536,0.081-0.802    c0.049-0.475,0.101-0.945,0.153-1.411c0.026-0.237,0.052-0.476,0.08-0.711c0.067-0.576,0.136-1.144,0.207-1.706    c0.014-0.112,0.027-0.227,0.042-0.338c0.087-0.674,0.177-1.336,0.269-1.988c0.025-0.175,0.051-0.344,0.076-0.518    c0.068-0.472,0.137-0.94,0.208-1.401c0.035-0.224,0.07-0.445,0.105-0.667c0.065-0.407,0.13-0.811,0.197-1.209    c0.037-0.223,0.075-0.444,0.113-0.664c0.069-0.403,0.14-0.799,0.211-1.192c0.035-0.194,0.07-0.389,0.106-0.581    c0.087-0.464,0.174-0.92,0.263-1.37c0.021-0.109,0.042-0.222,0.064-0.33c0.112-0.558,0.225-1.105,0.34-1.64    c0.026-0.122,0.053-0.239,0.079-0.359c0.089-0.409,0.179-0.813,0.27-1.209c0.039-0.169,0.078-0.335,0.117-0.501    c0.08-0.342,0.161-0.68,0.242-1.011c0.042-0.171,0.084-0.341,0.126-0.509c0.082-0.325,0.164-0.644,0.246-0.959    c0.04-0.154,0.081-0.31,0.121-0.461c0.095-0.356,0.191-0.703,0.287-1.045c0.027-0.096,0.054-0.195,0.081-0.289    c0.125-0.439,0.25-0.866,0.376-1.28c0.02-0.064,0.039-0.125,0.059-0.189c0.105-0.343,0.21-0.678,0.316-1.004    c0.039-0.12,0.078-0.236,0.117-0.354c0.088-0.266,0.176-0.528,0.263-0.782c0.042-0.121,0.083-0.24,0.125-0.358    c0.087-0.247,0.174-0.488,0.261-0.723c0.039-0.107,0.079-0.215,0.118-0.32c0.098-0.261,0.196-0.513,0.294-0.758    c0.026-0.066,0.052-0.135,0.078-0.199c0.126-0.314,0.252-0.616,0.377-0.904c0.007-0.016,0.014-0.03,0.021-0.046    c0.098-0.226,0.196-0.438,0.292-0.648c3.012,6.513,6.638,20.667,7.537,41.118c-4.33,1.098-7.539,5.01-7.539,9.682    s3.209,8.584,7.539,9.682c-0.9,20.45-4.526,34.604-7.537,41.117c-0.098-0.211-0.196-0.426-0.295-0.653    c-0.006-0.014-0.012-0.026-0.018-0.04c-0.125-0.289-0.252-0.592-0.378-0.907c-0.025-0.061-0.05-0.127-0.074-0.189    c-0.099-0.249-0.198-0.505-0.298-0.77c-0.038-0.102-0.077-0.207-0.115-0.311c-0.088-0.238-0.176-0.482-0.264-0.733    c-0.041-0.116-0.081-0.232-0.122-0.35c-0.089-0.258-0.178-0.524-0.267-0.794c-0.038-0.114-0.075-0.226-0.113-0.342    c-0.108-0.333-0.215-0.676-0.323-1.026c-0.017-0.057-0.035-0.11-0.052-0.167c-0.127-0.417-0.253-0.847-0.379-1.288    c-0.025-0.087-0.049-0.177-0.074-0.265c-0.099-0.35-0.197-0.705-0.294-1.07c-0.039-0.148-0.079-0.299-0.118-0.449    c-0.084-0.319-0.167-0.642-0.25-0.972c-0.042-0.165-0.083-0.332-0.124-0.5c-0.082-0.335-0.164-0.676-0.245-1.021    c-0.038-0.163-0.077-0.326-0.115-0.491c-0.092-0.401-0.183-0.812-0.274-1.227c-0.025-0.115-0.051-0.226-0.075-0.342    c-0.115-0.537-0.229-1.085-0.341-1.645c-0.021-0.104-0.041-0.213-0.062-0.317c-0.09-0.455-0.179-0.915-0.266-1.384    c-0.035-0.188-0.069-0.38-0.104-0.57c-0.072-0.396-0.143-0.797-0.214-1.203c-0.037-0.217-0.074-0.436-0.111-0.656    c-0.067-0.401-0.133-0.807-0.198-1.217c-0.035-0.22-0.07-0.438-0.104-0.66c-0.071-0.462-0.141-0.933-0.209-1.407    c-0.025-0.172-0.051-0.34-0.075-0.513c-0.092-0.653-0.182-1.315-0.269-1.99c-0.014-0.11-0.027-0.223-0.041-0.333    c-0.071-0.563-0.141-1.133-0.208-1.711c-0.027-0.234-0.053-0.472-0.079-0.708c-0.052-0.467-0.104-0.937-0.153-1.414    c-0.028-0.265-0.054-0.532-0.081-0.8c-0.046-0.467-0.091-0.938-0.134-1.413c-0.025-0.272-0.05-0.544-0.074-0.819    c-0.045-0.512-0.087-1.032-0.128-1.554c-0.019-0.237-0.038-0.471-0.056-0.711c-0.057-0.76-0.111-1.529-0.16-2.309    c-0.006-0.093-0.01-0.188-0.016-0.281c-0.043-0.693-0.082-1.394-0.119-2.103c-0.013-0.263-0.025-0.53-0.038-0.795    c-0.026-0.548-0.051-1.099-0.073-1.656c-0.012-0.307-0.023-0.617-0.034-0.927c-0.019-0.535-0.036-1.074-0.051-1.616    c-0.009-0.315-0.017-0.63-0.025-0.948c-0.013-0.58-0.024-1.167-0.033-1.756c-0.004-0.279-0.01-0.555-0.013-0.835    c-0.01-0.871-0.016-1.75-0.016-2.64S321.202,72.064,321.212,71.193z M299.614,20h8.983c-0.007,0.019-0.013,0.039-0.02,0.058    c-0.194,0.541-0.383,1.088-0.567,1.641c-0.055,0.166-0.108,0.334-0.162,0.501c-0.13,0.398-0.258,0.798-0.382,1.201    c-0.064,0.208-0.127,0.416-0.19,0.625c-0.115,0.381-0.227,0.764-0.337,1.149c-0.058,0.203-0.117,0.406-0.174,0.61    c-0.129,0.462-0.255,0.928-0.378,1.395c-0.032,0.121-0.065,0.241-0.097,0.362c-0.151,0.581-0.297,1.165-0.439,1.752    c-0.046,0.192-0.091,0.385-0.136,0.577c-0.097,0.41-0.193,0.821-0.285,1.233c-0.051,0.226-0.101,0.452-0.151,0.679    c-0.087,0.395-0.171,0.792-0.255,1.189c-0.045,0.217-0.091,0.433-0.135,0.65c-0.099,0.488-0.196,0.976-0.29,1.465    c-0.023,0.118-0.047,0.236-0.069,0.354c-0.114,0.599-0.223,1.199-0.329,1.799c-0.036,0.203-0.07,0.406-0.105,0.61    c-0.071,0.412-0.141,0.825-0.209,1.237c-0.038,0.232-0.076,0.464-0.113,0.697c-0.063,0.397-0.125,0.793-0.186,1.189    c-0.034,0.22-0.067,0.439-0.1,0.658c-0.073,0.489-0.143,0.977-0.211,1.465c-0.016,0.117-0.034,0.234-0.05,0.351    c-0.082,0.593-0.16,1.184-0.235,1.773c-0.026,0.204-0.051,0.407-0.076,0.61c-0.05,0.4-0.099,0.799-0.146,1.196    c-0.027,0.229-0.054,0.456-0.08,0.684c-0.044,0.387-0.087,0.771-0.129,1.155c-0.023,0.208-0.046,0.417-0.068,0.625    c-0.051,0.483-0.1,0.963-0.148,1.44c-0.01,0.099-0.021,0.2-0.03,0.3c-0.055,0.567-0.108,1.128-0.158,1.685    c-0.018,0.195-0.034,0.386-0.051,0.58c-0.033,0.373-0.065,0.745-0.095,1.113c-0.018,0.213-0.035,0.424-0.051,0.635    c-0.029,0.36-0.056,0.716-0.083,1.071c-0.015,0.195-0.03,0.391-0.044,0.584c-0.033,0.452-0.064,0.899-0.094,1.341    c-0.005,0.079-0.011,0.16-0.016,0.239c-0.034,0.518-0.066,1.027-0.096,1.53c-0.01,0.169-0.019,0.335-0.029,0.502    c-0.02,0.34-0.039,0.678-0.056,1.011c-0.01,0.18-0.019,0.358-0.028,0.536c-0.017,0.335-0.033,0.664-0.049,0.99    c-0.007,0.151-0.015,0.304-0.021,0.453c-0.019,0.412-0.036,0.817-0.052,1.214c-0.002,0.054-0.005,0.11-0.007,0.163    c-0.018,0.442-0.033,0.87-0.048,1.291c-0.005,0.142-0.009,0.279-0.014,0.419c-0.009,0.287-0.018,0.57-0.027,0.847    c-0.004,0.146-0.008,0.289-0.012,0.432c-0.008,0.275-0.015,0.543-0.021,0.806c-0.003,0.115-0.006,0.231-0.008,0.344    c-0.008,0.339-0.015,0.669-0.021,0.987c-0.001,0.046-0.002,0.093-0.003,0.138c-0.006,0.328-0.011,0.641-0.015,0.945    c-0.002,0.114-0.003,0.221-0.004,0.331c-0.003,0.205-0.005,0.405-0.007,0.598c-0.001,0.107-0.002,0.21-0.003,0.313    c-0.002,0.192-0.003,0.376-0.004,0.555c0,0.087-0.001,0.176-0.001,0.259c-0.001,0.245-0.002,0.48-0.002,0.696    s0.001,0.451,0.002,0.696c0,0.084,0.001,0.172,0.001,0.259c0.001,0.179,0.002,0.362,0.004,0.555    c0.001,0.103,0.002,0.207,0.003,0.313c0.002,0.193,0.004,0.393,0.007,0.598c0.001,0.11,0.003,0.217,0.004,0.331    c0.004,0.304,0.009,0.619,0.015,0.947c0.001,0.044,0.002,0.089,0.003,0.134c0.006,0.319,0.013,0.649,0.021,0.989    c0.003,0.113,0.006,0.229,0.008,0.344c0.006,0.263,0.013,0.531,0.021,0.806c0.004,0.143,0.008,0.286,0.012,0.432    c0.008,0.277,0.017,0.561,0.027,0.849c0.005,0.139,0.009,0.275,0.014,0.417c0.015,0.421,0.03,0.851,0.048,1.292    c0.002,0.052,0.005,0.107,0.007,0.159c0.016,0.398,0.034,0.804,0.052,1.218c0.007,0.149,0.014,0.3,0.021,0.451    c0.015,0.327,0.032,0.657,0.049,0.992c0.009,0.177,0.018,0.354,0.028,0.534c0.018,0.334,0.037,0.672,0.056,1.013    c0.01,0.167,0.019,0.331,0.029,0.5c0.03,0.504,0.062,1.013,0.096,1.532c0.005,0.075,0.011,0.153,0.016,0.229    c0.03,0.445,0.061,0.895,0.094,1.351c0.014,0.192,0.029,0.387,0.043,0.581c0.027,0.356,0.054,0.714,0.083,1.076    c0.017,0.209,0.034,0.419,0.051,0.63c0.031,0.37,0.063,0.744,0.095,1.119c0.017,0.192,0.033,0.382,0.05,0.575    c0.05,0.558,0.103,1.12,0.158,1.687c0.009,0.095,0.02,0.192,0.029,0.288c0.048,0.481,0.097,0.965,0.149,1.452    c0.022,0.205,0.045,0.412,0.067,0.618c0.042,0.387,0.086,0.774,0.13,1.164c0.026,0.225,0.052,0.45,0.079,0.676    c0.048,0.401,0.097,0.804,0.148,1.208c0.025,0.2,0.049,0.399,0.075,0.599c0.076,0.591,0.154,1.184,0.236,1.779    c0.015,0.111,0.032,0.222,0.047,0.332c0.069,0.494,0.14,0.988,0.214,1.484c0.032,0.216,0.065,0.432,0.098,0.648    c0.061,0.4,0.123,0.801,0.188,1.202c0.037,0.229,0.074,0.457,0.111,0.686c0.069,0.417,0.139,0.833,0.211,1.25    c0.034,0.2,0.068,0.399,0.103,0.598c0.107,0.602,0.216,1.204,0.33,1.805c0.021,0.112,0.044,0.224,0.066,0.336    c0.095,0.496,0.193,0.991,0.294,1.485c0.044,0.214,0.089,0.426,0.133,0.64c0.084,0.401,0.169,0.801,0.257,1.201    c0.049,0.224,0.098,0.447,0.149,0.67c0.094,0.416,0.19,0.831,0.288,1.245c0.045,0.189,0.088,0.379,0.134,0.568    c0.143,0.589,0.289,1.175,0.44,1.757c0.03,0.116,0.062,0.23,0.092,0.345c0.125,0.473,0.252,0.945,0.383,1.413    c0.056,0.201,0.114,0.4,0.171,0.6c0.111,0.389,0.225,0.776,0.341,1.16c0.062,0.206,0.124,0.411,0.187,0.616    c0.126,0.407,0.255,0.811,0.386,1.213c0.053,0.163,0.105,0.328,0.159,0.491c0.184,0.554,0.373,1.103,0.568,1.645    c0.007,0.018,0.013,0.037,0.019,0.056h-8.983c-9.269,0-17.999-2.355-25.622-6.498c-0.04-0.022-0.078-0.045-0.118-0.067    c-10.239-5.598-18.458-14.432-23.302-25.111c-0.208-0.461-0.423-0.919-0.619-1.387c-0.114-0.272-0.216-0.551-0.326-0.825    c-0.243-0.608-0.483-1.218-0.704-1.836c-0.075-0.209-0.142-0.422-0.214-0.632c-0.239-0.696-0.469-1.396-0.68-2.104    c-0.049-0.163-0.093-0.328-0.14-0.492c-0.22-0.765-0.426-1.536-0.612-2.313c-0.969-4.035-1.496-8.239-1.496-12.567    C245.781,44.149,269.931,20,299.614,20z M242.373,120.461c5.1,6.258,11.23,11.689,18.193,16.033l10.702,66.711h-42.49    L242.373,120.461z M158.009,183c13.543,0,25.193,8.307,29.99,20.205h-59.98C132.816,191.307,144.466,183,158.009,183z     M108.485,223.206h295.03v-0.001l9.579,9.437H179.312c-5.523,0-10,4.477-10,10c0,5.523,4.477,10,10,10h254.086l10.724,10.564    H67.879L108.485,223.206z M400.427,413.334c21.688-0.001,39.334,17.644,39.334,39.333c0,21.688-17.646,39.333-39.334,39.333    H111.572c-21.688,0-39.333-17.645-39.333-39.333c0-21.688,17.645-39.333,39.333-39.333H400.427z M193.334,393.333v-9.564h125.334    v9.564h-0.001H193.334z M401.999,363.769H110l-49.13-80.563h390.257L401.999,363.769z" fill="#5a2b81"/>
	</g>
</g>
<g>
	<g>
		<path d="M167.28,291.487h-44c-5.523,0-10,4.477-10,10v44c0,5.523,4.477,10,10,10h44c5.523,0,10-4.477,10-10v-44    C177.28,295.964,172.803,291.487,167.28,291.487z M157.28,335.487h-24v-24h24V335.487z" fill="#5a2b81"/>
	</g>
</g>
<g>
	<g>
		<path d="M364.981,313.487H253.28v-12c0-5.523-4.477-10-10-10h-44c-5.523,0-10,4.477-10,10v44c0,5.523,4.477,10,10,10h44    c5.523,0,10-4.477,10-10v-12h111.701c5.522,0,10-4.477,10-10S370.503,313.487,364.981,313.487z M233.28,335.487h-24v-24h24    V335.487z" fill="#5a2b81"/>
	</g>
</g>
<g>
	<g>
		<path d="M411.79,321.53c-0.13-0.63-0.32-1.26-0.57-1.87c-0.25-0.6-0.56-1.18-0.92-1.72c-0.37-0.55-0.79-1.06-1.25-1.52    c-0.46-0.46-0.97-0.88-1.52-1.25c-0.54-0.36-1.12-0.67-1.721-0.92c-0.609-0.25-1.24-0.44-1.87-0.57c-1.3-0.26-2.62-0.26-3.909,0    c-0.641,0.13-1.271,0.32-1.87,0.57c-0.61,0.25-1.19,0.56-1.73,0.92c-0.55,0.37-1.06,0.79-1.52,1.25    c-0.46,0.46-0.88,0.97-1.24,1.52c-0.36,0.54-0.67,1.12-0.92,1.72c-0.25,0.61-0.44,1.24-0.57,1.87c-0.13,0.65-0.2,1.3-0.2,1.96    c0,0.65,0.07,1.31,0.2,1.95c0.13,0.64,0.32,1.27,0.57,1.87c0.25,0.61,0.56,1.19,0.92,1.73c0.36,0.55,0.78,1.06,1.24,1.52    c0.46,0.46,0.97,0.88,1.52,1.24c0.54,0.36,1.12,0.67,1.73,0.92c0.6,0.25,1.229,0.44,1.87,0.57c0.64,0.13,1.3,0.2,1.949,0.2    c0.65,0,1.311-0.07,1.96-0.2c0.63-0.13,1.261-0.32,1.87-0.57c0.601-0.25,1.181-0.56,1.721-0.92c0.55-0.36,1.06-0.78,1.52-1.24    c0.46-0.46,0.88-0.97,1.25-1.52c0.36-0.54,0.67-1.12,0.92-1.73c0.25-0.6,0.44-1.23,0.57-1.87c0.13-0.64,0.189-1.3,0.189-1.95    C411.979,322.83,411.919,322.18,411.79,321.53z" fill="#5a2b81"/>
	</g>
</g>
<g>
	<g>
		<path d="M152.11,240.69c-0.12-0.64-0.32-1.27-0.57-1.87c-0.25-0.61-0.55-1.19-0.91-1.73c-0.37-0.55-0.79-1.06-1.25-1.52    s-0.97-0.88-1.52-1.24c-0.54-0.36-1.12-0.67-1.72-0.92c-0.61-0.25-1.24-0.44-1.87-0.57c-1.3-0.26-2.62-0.26-3.91,0    c-0.64,0.13-1.27,0.32-1.87,0.57c-0.61,0.25-1.19,0.56-1.73,0.92c-0.55,0.36-1.06,0.78-1.52,1.24s-0.88,0.97-1.24,1.52    c-0.36,0.54-0.67,1.12-0.92,1.73c-0.25,0.6-0.44,1.23-0.57,1.87s-0.2,1.3-0.2,1.95c0,0.65,0.07,1.31,0.2,1.96    c0.13,0.63,0.32,1.26,0.57,1.87c0.25,0.6,0.56,1.18,0.92,1.72c0.36,0.55,0.78,1.06,1.24,1.52c0.46,0.46,0.97,0.88,1.52,1.25    c0.54,0.36,1.12,0.67,1.73,0.92c0.6,0.25,1.23,0.44,1.87,0.57s1.3,0.19,1.95,0.19c0.65,0,1.31-0.06,1.96-0.19    c0.63-0.13,1.26-0.32,1.87-0.57c0.6-0.25,1.18-0.56,1.72-0.92c0.55-0.37,1.06-0.79,1.52-1.25c0.46-0.46,0.88-0.97,1.25-1.52    c0.36-0.54,0.66-1.12,0.91-1.72c0.25-0.61,0.45-1.24,0.57-1.87c0.13-0.65,0.2-1.31,0.2-1.96    C152.31,241.99,152.24,241.33,152.11,240.69z" fill="#5a2b81"/>
	</g>
</g>
<g>
	<g>
		<path d="M121.341,418c-19.115,0-34.667,15.551-34.667,34.667c0,19.116,15.551,34.667,34.667,34.667    c19.116,0,34.667-15.552,34.667-34.667S140.458,418,121.341,418z M121.341,467.333c-8.087,0-14.667-6.58-14.667-14.667    c0-8.087,6.58-14.667,14.667-14.667c8.087,0,14.667,6.58,14.667,14.667C136.009,460.754,129.43,467.333,121.341,467.333z" fill="#5a2b81"/>
	</g>
</g>
<g>
	<g>
		<path d="M211.114,418c-19.115,0-34.667,15.551-34.667,34.667c0,19.116,15.552,34.667,34.667,34.667s34.667-15.552,34.667-34.667    S230.23,418,211.114,418z M211.114,467.333c-8.087,0-14.667-6.58-14.667-14.667c0-8.087,6.58-14.667,14.667-14.667    c8.087,0,14.667,6.58,14.667,14.667C225.781,460.754,219.201,467.333,211.114,467.333z" fill="#5a2b81"/>
	</g>
</g>
<g>
	<g>
		<path d="M300.885,418c-19.115,0-34.667,15.551-34.667,34.667c0,19.116,15.552,34.667,34.667,34.667s34.667-15.552,34.667-34.667    S320.001,418,300.885,418z M300.885,467.333c-8.088,0-14.667-6.58-14.667-14.667c0-8.087,6.579-14.667,14.667-14.667    c8.088,0,14.667,6.58,14.667,14.667C315.553,460.754,308.974,467.333,300.885,467.333z" fill="#5a2b81"/>
	</g>
</g>
<g>
	<g>
		<path d="M390.657,418c-19.116,0-34.666,15.551-34.666,34.667c0,19.116,15.551,34.666,34.666,34.666    c19.115,0,34.667-15.552,34.667-34.667S409.773,418,390.657,418z M390.657,467.334c-8.087,0-14.666-6.58-14.666-14.667    c0-8.087,6.579-14.667,14.666-14.667c8.088,0,14.667,6.58,14.667,14.667C405.324,460.754,398.745,467.334,390.657,467.334z" fill="#5a2b81"/>
	</g>
</g>
<g>
</g>
<g>
</g>
<g>
</g>
<g>
</g>
<g>
</g>
<g>
</g>
<g>
</g>
<g>
</g>
<g>
</g>
<g>
</g>
<g>
</g>
<g>
</g>
<g>
</g>
<g>
</g>
<g>
</g>
</svg>
