<?xml version="1.0" encoding="iso-8859-1"?>
<!-- Generator: Adobe Illustrator 19.0.0, SVG Export Plug-In . SVG Version: 6.00 Build 0)  -->
<svg xmlns="http://www.w3.org/2000/svg" xmlns:xlink="http://www.w3.org/1999/xlink" version="1.1" id="Capa_1" x="0px" y="0px" viewBox="0 0 512 512" style="enable-background:new 0 0 512 512;" xml:space="preserve" width="112px" height="112px">
<g>
	<g>
		<path d="M322.549,368.44c-0.13-0.64-0.32-1.27-0.57-1.88c-0.25-0.6-0.56-1.18-0.92-1.72c-0.359-0.55-0.779-1.061-1.24-1.521    c-0.46-0.46-0.97-0.88-1.52-1.239c-0.54-0.36-1.12-0.67-1.73-0.92c-0.6-0.25-1.229-0.45-1.869-0.57c-1.29-0.26-2.61-0.26-3.9,0    c-0.64,0.12-1.27,0.32-1.87,0.57c-0.61,0.25-1.189,0.56-1.729,0.92c-0.551,0.359-1.061,0.779-1.521,1.239    c-0.46,0.46-0.88,0.971-1.24,1.521c-0.359,0.54-0.67,1.12-0.92,1.72c-0.25,0.61-0.45,1.24-0.569,1.88    c-0.131,0.641-0.2,1.301-0.2,1.95c0,0.65,0.069,1.311,0.2,1.95c0.118,0.639,0.319,1.269,0.569,1.87    c0.25,0.609,0.561,1.189,0.92,1.729c0.36,0.551,0.78,1.061,1.24,1.521c0.46,0.46,0.97,0.88,1.521,1.24    c0.54,0.359,1.119,0.67,1.729,0.92c0.601,0.25,1.23,0.449,1.87,0.569c0.64,0.13,1.3,0.2,1.95,0.2c0.649,0,1.31-0.07,1.95-0.2    c0.64-0.12,1.27-0.319,1.869-0.569c0.61-0.25,1.19-0.561,1.73-0.92c0.55-0.36,1.06-0.78,1.52-1.24    c0.461-0.46,0.881-0.97,1.24-1.521c0.36-0.54,0.67-1.12,0.92-1.729c0.25-0.601,0.44-1.23,0.57-1.87c0.13-0.64,0.2-1.3,0.2-1.95    C322.749,369.741,322.679,369.08,322.549,368.44z" fill="#5a2b81"/>
	</g>
</g>
<g>
	<g>
		<path d="M275.75,360.39h-76.5c-5.523,0-10,4.478-10,10c0,5.522,4.477,10,10,10h76.5c5.522,0,10-4.478,10-10    C285.75,364.868,281.272,360.39,275.75,360.39z" fill="#5a2b81"/>
	</g>
</g>
<g>
	<g>
		<path d="M151.75,426.535c-15.577,0-28.25,12.673-28.25,28.25c0,15.577,12.673,28.25,28.25,28.25    c15.577,0,28.25-12.673,28.25-28.25C180,439.208,167.327,426.535,151.75,426.535z M151.75,463.035c-4.549,0-8.25-3.701-8.25-8.25    s3.701-8.25,8.25-8.25s8.25,3.701,8.25,8.25S156.299,463.035,151.75,463.035z" fill="#5a2b81"/>
	</g>
</g>
<g>
	<g>
		<path d="M221.25,426.535c-15.577,0-28.25,12.673-28.25,28.25c0,15.577,12.673,28.25,28.25,28.25    c15.577,0,28.25-12.673,28.25-28.25C249.5,439.208,236.827,426.535,221.25,426.535z M221.25,463.035    c-4.549,0-8.25-3.701-8.25-8.25s3.701-8.25,8.25-8.25s8.25,3.701,8.25,8.25S225.799,463.035,221.25,463.035z" fill="#5a2b81"/>
	</g>
</g>
<g>
	<g>
		<path d="M290.75,426.535c-15.577,0-28.25,12.673-28.25,28.25c0,15.577,12.673,28.25,28.25,28.25    c15.577,0,28.25-12.673,28.25-28.25C319,439.208,306.327,426.535,290.75,426.535z M290.75,463.035c-4.549,0-8.25-3.701-8.25-8.25    s3.701-8.25,8.25-8.25s8.25,3.701,8.25,8.25S295.299,463.035,290.75,463.035z" fill="#5a2b81"/>
	</g>
</g>
<g>
	<g>
		<path d="M360.25,426.535c-15.577,0-28.25,12.673-28.25,28.25c0,15.577,12.673,28.25,28.25,28.25    c15.577,0,28.25-12.673,28.25-28.25C388.5,439.208,375.827,426.535,360.25,426.535z M360.25,463.035    c-4.549,0-8.25-3.701-8.25-8.25s3.701-8.25,8.25-8.25s8.25,3.701,8.25,8.25S364.799,463.035,360.25,463.035z" fill="#5a2b81"/>
	</g>
</g>
<g>
	<g>
		<path d="M256,0C151.56,0,66.592,84.968,66.592,189.408c0,0.008,0.001,0.015,0.001,0.022c0,0.071,0.007,0.141,0.009,0.211    c0.005,0.228,0.015,0.454,0.035,0.678c0.01,0.116,0.028,0.23,0.042,0.346c0.023,0.18,0.048,0.359,0.08,0.536    c0.023,0.126,0.05,0.252,0.078,0.378c0.037,0.166,0.079,0.331,0.124,0.495c0.035,0.126,0.07,0.252,0.11,0.377    c0.055,0.173,0.119,0.344,0.183,0.513c0.042,0.109,0.078,0.219,0.124,0.328c0.11,0.262,0.232,0.518,0.364,0.768    c0.049,0.092,0.104,0.182,0.156,0.273c0.101,0.177,0.204,0.352,0.315,0.523c0.061,0.093,0.124,0.184,0.188,0.276    c0.124,0.178,0.255,0.351,0.391,0.521c0.04,0.05,0.073,0.103,0.114,0.152l96.765,116.255h-8.666c-5.523,0-10,4.478-10,10v75.514    C115.553,397.689,90,423.307,90,454.785C90,486.334,115.667,512,147.215,512h217.57C396.334,512,422,486.334,422,454.785    c0-31.478-25.553-57.096-57.005-57.21v-75.514c0-5.522-4.478-10-10-10h-8.666l96.765-116.255c0.038-0.046,0.069-0.096,0.106-0.143    c0.14-0.174,0.274-0.352,0.402-0.535c0.061-0.087,0.121-0.173,0.178-0.261c0.117-0.179,0.226-0.363,0.332-0.55    c0.047-0.083,0.098-0.164,0.142-0.248c0.134-0.253,0.257-0.513,0.369-0.778c0.044-0.103,0.079-0.209,0.119-0.313    c0.067-0.175,0.132-0.35,0.189-0.529c0.039-0.122,0.073-0.244,0.107-0.366c0.047-0.168,0.089-0.338,0.127-0.509    c0.027-0.122,0.053-0.244,0.075-0.366c0.033-0.182,0.059-0.365,0.082-0.55c0.014-0.112,0.031-0.223,0.041-0.335    c0.021-0.229,0.031-0.46,0.036-0.692c0.001-0.067,0.008-0.133,0.008-0.199c0-0.008,0.001-0.016,0.001-0.024    C445.408,84.968,360.44,0,256,0z M221.458,70.75c0.117-0.378,0.236-0.747,0.354-1.121c0.397-1.258,0.798-2.496,1.204-3.709    c0.046-0.138,0.092-0.28,0.138-0.418c0.172-0.51,0.346-1.008,0.52-1.51c0.125-0.361,0.249-0.726,0.374-1.083    c0.167-0.474,0.336-0.939,0.504-1.406c0.134-0.372,0.267-0.746,0.402-1.114c0.168-0.457,0.337-0.906,0.506-1.355    c0.137-0.365,0.274-0.731,0.412-1.092c0.168-0.44,0.338-0.873,0.507-1.306c0.141-0.36,0.282-0.719,0.424-1.074    c0.169-0.423,0.338-0.841,0.508-1.256c0.144-0.351,0.288-0.701,0.432-1.047c0.171-0.41,0.343-0.818,0.515-1.221    c0.145-0.339,0.29-0.674,0.435-1.008c0.172-0.396,0.345-0.79,0.518-1.179c0.149-0.333,0.298-0.661,0.447-0.99    c0.172-0.377,0.343-0.755,0.516-1.125c0.151-0.325,0.304-0.643,0.456-0.963c0.173-0.363,0.345-0.729,0.519-1.085    c0.151-0.311,0.304-0.614,0.456-0.919c0.175-0.353,0.35-0.709,0.526-1.054c0.152-0.298,0.305-0.586,0.457-0.878    c0.33-0.633,0.66-1.254,0.992-1.862c0.164-0.3,0.327-0.606,0.492-0.9c0.17-0.305,0.341-0.599,0.512-0.897    c0.163-0.285,0.326-0.574,0.49-0.854c0.17-0.29,0.341-0.57,0.511-0.853c0.166-0.275,0.331-0.553,0.497-0.822    c0.17-0.276,0.341-0.544,0.511-0.814c0.167-0.263,0.333-0.527,0.5-0.783c0.17-0.262,0.34-0.517,0.51-0.772    c0.169-0.253,0.338-0.505,0.507-0.751c0.169-0.247,0.338-0.489,0.507-0.729c0.171-0.242,0.341-0.481,0.512-0.716    c0.168-0.231,0.336-0.46,0.504-0.685c0.173-0.232,0.346-0.459,0.52-0.684c0.166-0.215,0.331-0.429,0.497-0.638    c0.178-0.224,0.355-0.441,0.533-0.657c0.161-0.197,0.323-0.395,0.484-0.586c0.184-0.218,0.369-0.427,0.553-0.637    c0.155-0.177,0.31-0.356,0.465-0.527c0.197-0.217,0.393-0.424,0.59-0.632c0.143-0.151,0.285-0.307,0.428-0.454    c0.257-0.263,0.513-0.514,0.77-0.762c0.107-0.103,0.214-0.209,0.32-0.31c0.308-0.291,0.617-0.572,0.924-0.84    c0.127-0.111,0.254-0.212,0.381-0.319c0.211-0.178,0.422-0.356,0.632-0.523c0.142-0.112,0.283-0.216,0.424-0.323    c0.195-0.148,0.39-0.297,0.585-0.436c0.147-0.105,0.294-0.203,0.441-0.303c0.188-0.128,0.376-0.255,0.564-0.374    c0.149-0.095,0.298-0.184,0.446-0.273c0.185-0.111,0.37-0.219,0.555-0.322c0.148-0.082,0.297-0.161,0.445-0.237    c0.184-0.095,0.368-0.187,0.552-0.273c0.147-0.069,0.293-0.137,0.439-0.2c0.185-0.081,0.37-0.155,0.554-0.227    c0.143-0.056,0.286-0.111,0.428-0.162c0.188-0.066,0.376-0.125,0.563-0.181c0.137-0.042,0.274-0.085,0.411-0.122    c0.196-0.052,0.39-0.094,0.585-0.136c0.126-0.027,0.253-0.058,0.379-0.081c0.214-0.039,0.428-0.065,0.641-0.091    c0.105-0.013,0.21-0.031,0.315-0.041C255.372,20.016,255.687,20,256,20c0.311,0,0.625,0.016,0.94,0.045    c0.105,0.01,0.211,0.029,0.316,0.041c0.211,0.026,0.422,0.052,0.634,0.09c0.126,0.023,0.253,0.054,0.38,0.082    c0.193,0.042,0.386,0.084,0.581,0.136c0.136,0.037,0.273,0.08,0.41,0.122c0.186,0.057,0.372,0.115,0.558,0.181    c0.143,0.051,0.286,0.106,0.429,0.162c0.183,0.071,0.366,0.146,0.549,0.226c0.146,0.064,0.292,0.132,0.439,0.201    c0.182,0.086,0.364,0.177,0.547,0.272c0.148,0.077,0.297,0.156,0.445,0.239c0.182,0.102,0.365,0.209,0.549,0.319    c0.149,0.09,0.299,0.18,0.449,0.275c0.184,0.118,0.369,0.243,0.554,0.37c0.149,0.101,0.297,0.201,0.446,0.308    c0.19,0.136,0.38,0.282,0.57,0.427c0.145,0.11,0.289,0.217,0.434,0.333c0.203,0.162,0.407,0.336,0.611,0.508    c0.132,0.112,0.264,0.217,0.396,0.333c0.287,0.251,0.574,0.515,0.861,0.786c0.141,0.133,0.283,0.272,0.424,0.41    c0.238,0.232,0.477,0.465,0.715,0.711c0.152,0.157,0.304,0.324,0.457,0.486c0.185,0.197,0.37,0.392,0.555,0.597    c0.163,0.181,0.326,0.37,0.489,0.557c0.174,0.2,0.349,0.399,0.523,0.606c0.167,0.199,0.335,0.405,0.502,0.61    c0.17,0.208,0.34,0.417,0.51,0.632c0.171,0.217,0.342,0.439,0.513,0.662c0.165,0.216,0.331,0.433,0.496,0.655    c0.174,0.234,0.348,0.472,0.522,0.714c0.162,0.224,0.323,0.451,0.485,0.681c0.177,0.252,0.354,0.507,0.531,0.766    c0.158,0.231,0.315,0.467,0.473,0.704c0.179,0.27,0.358,0.54,0.537,0.817c0.154,0.238,0.307,0.482,0.461,0.725    c0.182,0.289,0.365,0.577,0.547,0.874c0.147,0.24,0.294,0.487,0.441,0.733c0.187,0.312,0.375,0.622,0.561,0.942    c0.136,0.232,0.271,0.473,0.406,0.71c0.197,0.345,0.395,0.686,0.591,1.04c0.055,0.099,0.109,0.203,0.164,0.302    c0.491,0.89,0.979,1.809,1.465,2.754c0.094,0.183,0.189,0.362,0.284,0.547c0.203,0.399,0.404,0.81,0.606,1.219    c0.123,0.249,0.246,0.494,0.368,0.746c0.195,0.403,0.39,0.816,0.584,1.228c0.127,0.269,0.255,0.536,0.381,0.81    c0.191,0.412,0.382,0.833,0.572,1.253c0.129,0.284,0.257,0.568,0.385,0.856c0.189,0.425,0.377,0.856,0.564,1.289    c0.128,0.296,0.256,0.593,0.384,0.893c0.187,0.44,0.374,0.885,0.56,1.333c0.125,0.302,0.25,0.606,0.375,0.911    c0.187,0.458,0.373,0.919,0.559,1.386c0.122,0.306,0.243,0.616,0.364,0.926c0.188,0.48,0.375,0.962,0.561,1.45    c0.114,0.3,0.228,0.605,0.342,0.908c0.191,0.509,0.382,1.018,0.571,1.536c0.103,0.281,0.204,0.569,0.307,0.853    c0.199,0.553,0.398,1.105,0.595,1.668c0.072,0.205,0.142,0.415,0.214,0.621c0.756,2.182,1.497,4.437,2.222,6.77    c0.036,0.115,0.072,0.227,0.108,0.342c0.198,0.641,0.393,1.293,0.589,1.944c0.085,0.282,0.17,0.56,0.254,0.844    c0.18,0.608,0.357,1.225,0.535,1.842c0.098,0.34,0.196,0.678,0.294,1.022c0.17,0.601,0.339,1.211,0.507,1.821    c0.101,0.365,0.201,0.73,0.301,1.098c0.164,0.607,0.327,1.22,0.49,1.836c0.101,0.384,0.202,0.769,0.302,1.156    c0.159,0.614,0.317,1.232,0.473,1.854c0.1,0.398,0.2,0.798,0.299,1.199c0.155,0.625,0.309,1.254,0.461,1.888    c0.097,0.405,0.194,0.813,0.29,1.222c0.152,0.644,0.304,1.289,0.453,1.941c0.092,0.401,0.182,0.806,0.273,1.21    c0.151,0.669,0.301,1.338,0.449,2.015c0.084,0.386,0.167,0.777,0.25,1.166c0.152,0.709,0.305,1.417,0.454,2.135    c0.063,0.302,0.124,0.61,0.186,0.915c0.542,2.647,1.064,5.356,1.564,8.124c0.06,0.333,0.122,0.662,0.181,0.996    c0.129,0.727,0.255,1.464,0.381,2.199c0.078,0.454,0.157,0.905,0.233,1.361c0.118,0.703,0.233,1.414,0.348,2.124    c0.081,0.501,0.163,1,0.243,1.505c0.109,0.693,0.216,1.392,0.323,2.091c0.081,0.533,0.163,1.067,0.242,1.604    c0.102,0.691,0.203,1.386,0.303,2.083c0.08,0.556,0.158,1.113,0.236,1.672c0.096,0.693,0.191,1.389,0.284,2.088    c0.077,0.577,0.153,1.156,0.228,1.737c0.09,0.694,0.179,1.389,0.266,2.089c0.074,0.597,0.147,1.198,0.219,1.8    c0.084,0.698,0.168,1.397,0.249,2.101c0.07,0.611,0.138,1.228,0.207,1.843c0.078,0.704,0.157,1.407,0.232,2.117    c0.068,0.636,0.132,1.278,0.197,1.918c0.071,0.699,0.144,1.396,0.213,2.1c0.067,0.684,0.129,1.376,0.193,2.065    c0.062,0.673,0.127,1.341,0.187,2.019c0.117,1.327,0.23,2.663,0.338,4.009c0.048,0.594,0.091,1.197,0.136,1.795    c0.062,0.808,0.124,1.615,0.182,2.429c0.046,0.645,0.088,1.297,0.131,1.946c0.052,0.775,0.105,1.548,0.154,2.329    c0.042,0.669,0.08,1.344,0.12,2.017c0.045,0.775,0.091,1.549,0.133,2.329c0.036,0.676,0.07,1.357,0.104,2.037    c0.025,0.497,0.048,0.995,0.072,1.494C293.774,155.27,280.31,149.772,266,148V81.2c0-5.522-4.478-10-10-10    c-5.523,0-10,4.478-10,10v66.775c-14.39,1.742-27.932,7.25-39.346,15.844c0.026-0.556,0.052-1.111,0.08-1.665    c0.03-0.592,0.059-1.186,0.091-1.775c0.048-0.895,0.1-1.784,0.153-2.671c0.033-0.559,0.065-1.12,0.1-1.676    c0.059-0.938,0.122-1.868,0.185-2.797c0.034-0.497,0.066-0.998,0.101-1.494c0.077-1.085,0.16-2.161,0.244-3.235    c0.026-0.33,0.049-0.664,0.076-0.993c0.112-1.395,0.229-2.78,0.351-4.156c0.033-0.37,0.069-0.734,0.103-1.102    c0.091-1,0.184-1.998,0.28-2.987c0.053-0.537,0.109-1.068,0.163-1.602c0.082-0.811,0.164-1.623,0.25-2.427    c0.063-0.588,0.129-1.17,0.193-1.754c0.082-0.74,0.164-1.48,0.249-2.214c0.07-0.604,0.143-1.204,0.215-1.804    c0.085-0.705,0.17-1.408,0.258-2.107c0.076-0.608,0.154-1.212,0.232-1.815c0.089-0.683,0.178-1.364,0.269-2.041    c0.081-0.603,0.163-1.204,0.247-1.802c0.092-0.665,0.187-1.326,0.282-1.986c0.086-0.599,0.173-1.198,0.261-1.792    c0.097-0.651,0.195-1.296,0.295-1.941c0.091-0.59,0.181-1.181,0.274-1.767c0.101-0.639,0.205-1.271,0.308-1.904    c0.095-0.581,0.189-1.164,0.286-1.74c0.106-0.631,0.215-1.255,0.324-1.88c0.098-0.565,0.195-1.133,0.294-1.693    c0.115-0.647,0.234-1.284,0.352-1.925c0.111-0.603,0.221-1.209,0.334-1.806c0.197-1.04,0.396-2.073,0.599-3.095    c0.11-0.552,0.222-1.095,0.334-1.642c0.117-0.577,0.234-1.156,0.353-1.727c0.119-0.567,0.24-1.126,0.36-1.688    c0.116-0.54,0.231-1.083,0.348-1.617c0.124-0.565,0.25-1.123,0.376-1.682c0.117-0.52,0.234-1.04,0.353-1.555    c0.13-0.562,0.261-1.118,0.393-1.675c0.118-0.498,0.236-0.996,0.355-1.49c0.135-0.556,0.27-1.108,0.407-1.658    c0.12-0.484,0.241-0.967,0.362-1.446c0.139-0.547,0.278-1.092,0.419-1.633c0.122-0.468,0.244-0.933,0.367-1.396    c0.143-0.539,0.286-1.077,0.431-1.609c0.124-0.455,0.248-0.905,0.373-1.355c0.147-0.531,0.294-1.061,0.443-1.585    c0.124-0.437,0.25-0.868,0.375-1.3c0.152-0.525,0.304-1.051,0.458-1.569c0.124-0.417,0.25-0.827,0.375-1.24    C221.142,71.786,221.299,71.263,221.458,70.75z M252.765,312.061L252.765,312.061l-45.457-121.128    c11.711-14.832,29.524-23.556,48.583-23.556c19.058,0,36.871,8.724,48.583,23.557l-45.457,121.127H252.765z M344.995,332.061    v65.509h-177.99v-65.509H344.995z M220.623,23.715c-0.437,0.663-0.869,1.344-1.3,2.034c-0.108,0.173-0.215,0.351-0.322,0.525    c-0.355,0.577-0.708,1.162-1.059,1.758c-0.13,0.221-0.261,0.442-0.39,0.666c-0.387,0.667-0.772,1.345-1.154,2.035    c-0.061,0.111-0.123,0.218-0.185,0.329c-0.439,0.799-0.874,1.615-1.306,2.444c-0.114,0.218-0.226,0.441-0.34,0.661    c-0.328,0.637-0.653,1.282-0.977,1.937c-0.126,0.254-0.252,0.508-0.377,0.766c-0.38,0.781-0.758,1.572-1.132,2.376    c-0.043,0.093-0.087,0.182-0.13,0.275c-0.416,0.898-0.827,1.815-1.235,2.743c-0.111,0.252-0.221,0.509-0.332,0.764    c-0.308,0.709-0.614,1.427-0.917,2.152c-0.117,0.279-0.234,0.557-0.35,0.839c-0.376,0.912-0.75,1.835-1.119,2.774    c-0.023,0.057-0.046,0.113-0.068,0.17c-0.391,0.995-0.776,2.008-1.159,3.032c-0.109,0.292-0.217,0.588-0.326,0.883    c-0.286,0.776-0.57,1.56-0.852,2.353c-0.108,0.305-0.217,0.608-0.325,0.915c-0.373,1.064-0.744,2.138-1.11,3.232    c-0.545,1.63-1.075,3.293-1.597,4.972c-0.097,0.311-0.195,0.621-0.291,0.934c-0.5,1.628-0.989,3.278-1.467,4.949    c-0.09,0.313-0.177,0.63-0.266,0.944c-0.485,1.719-0.962,3.453-1.424,5.215c-0.008,0.029-0.015,0.057-0.023,0.085    c-0.467,1.783-0.919,3.594-1.362,5.419c-0.082,0.339-0.165,0.676-0.247,1.016c-0.425,1.774-0.839,3.567-1.241,5.379    c-0.073,0.329-0.144,0.661-0.216,0.991c-0.399,1.823-0.79,3.661-1.166,5.521c-0.016,0.079-0.033,0.156-0.049,0.234    c-0.384,1.905-0.753,3.834-1.113,5.775c-0.069,0.374-0.139,0.748-0.208,1.123c-0.346,1.896-0.681,3.807-1.003,5.735    c-0.057,0.343-0.113,0.688-0.169,1.031c-0.314,1.909-0.619,3.83-0.911,5.769c-0.019,0.128-0.04,0.255-0.059,0.384    c-0.3,2.006-0.583,4.031-0.859,6.068c-0.055,0.408-0.11,0.815-0.164,1.224c-0.264,1.998-0.518,4.008-0.758,6.033    c-0.042,0.352-0.081,0.706-0.122,1.059c-0.23,1.976-0.45,3.963-0.657,5.963c-0.019,0.179-0.039,0.357-0.057,0.536    c-0.214,2.089-0.412,4.194-0.601,6.308c-0.039,0.433-0.077,0.865-0.115,1.299c-0.181,2.084-0.35,4.177-0.506,6.283    c-0.026,0.355-0.05,0.712-0.076,1.068c-0.147,2.04-0.283,4.088-0.407,6.146c-0.013,0.212-0.027,0.423-0.04,0.636    c-0.127,2.163-0.238,4.339-0.34,6.521c-0.011,0.237-0.026,0.471-0.037,0.708c-14.203-11.095-31.851-17.326-50.39-17.326    c-17.252,0-33.806,5.515-47.536,15.404C99.653,93.594,152.657,38.209,220.623,23.715z M89.369,189.127    c11.793-13.733,28.828-21.75,46.849-21.75c20.366,0,39.311,9.961,50.906,26.695l44.279,117.989h-39.71L89.369,189.127z     M364.785,417.569c20.521,0,37.215,16.696,37.215,37.216C402,475.306,385.306,492,364.785,492h-217.57    C126.695,492,110,475.306,110,454.785s16.695-37.216,37.215-37.216H364.785z M320.307,312.061h-39.928l44.28-117.991    c11.594-16.732,30.538-26.693,50.905-26.693c18.264,0,35.385,8.007,47.089,21.724L320.307,312.061z M375.565,147.377    c-18.537,0-36.186,6.23-50.386,17.322c-0.011-0.238-0.026-0.473-0.037-0.71c-0.101-2.186-0.211-4.365-0.338-6.533    c-0.011-0.199-0.025-0.396-0.037-0.595c-0.124-2.085-0.262-4.16-0.41-6.226c-0.024-0.332-0.046-0.666-0.07-0.998    c-0.156-2.125-0.326-4.239-0.508-6.342c-0.035-0.411-0.072-0.82-0.108-1.23c-0.189-2.134-0.388-4.259-0.602-6.368    c-0.015-0.15-0.032-0.299-0.047-0.449c-0.209-2.036-0.432-4.057-0.665-6.068c-0.039-0.333-0.076-0.668-0.115-1.001    c-0.24-2.039-0.494-4.063-0.758-6.075c-0.052-0.393-0.105-0.785-0.157-1.177c-0.275-2.047-0.558-4.083-0.858-6.1    c-0.017-0.118-0.036-0.235-0.054-0.353c-0.291-1.948-0.596-3.879-0.91-5.797c-0.056-0.341-0.11-0.684-0.167-1.024    c-0.321-1.929-0.654-3.841-0.997-5.737c-0.068-0.376-0.138-0.749-0.207-1.123c-0.357-1.937-0.723-3.862-1.104-5.764    c-0.018-0.09-0.037-0.178-0.055-0.267c-0.371-1.843-0.756-3.664-1.149-5.471c-0.075-0.342-0.148-0.686-0.223-1.027    c-0.397-1.797-0.805-3.575-1.224-5.334c-0.086-0.361-0.173-0.719-0.26-1.078c-0.437-1.806-0.881-3.599-1.341-5.363    c-0.014-0.054-0.029-0.107-0.043-0.161c-0.452-1.731-0.918-3.435-1.392-5.124c-0.092-0.329-0.184-0.66-0.277-0.987    c-0.473-1.661-0.956-3.299-1.45-4.917c-0.098-0.32-0.197-0.637-0.296-0.956c-0.518-1.673-1.043-3.33-1.584-4.954    c-0.363-1.092-0.732-2.165-1.103-3.228c-0.109-0.311-0.218-0.618-0.327-0.927c-0.28-0.791-0.562-1.573-0.847-2.348    c-0.108-0.293-0.215-0.589-0.323-0.88c-0.382-1.027-0.767-2.043-1.157-3.041c-0.017-0.044-0.035-0.086-0.052-0.13    c-0.372-0.95-0.749-1.884-1.128-2.807c-0.117-0.284-0.234-0.565-0.351-0.846c-0.301-0.722-0.604-1.436-0.909-2.141    c-0.112-0.258-0.223-0.518-0.335-0.774c-0.407-0.929-0.817-1.846-1.231-2.745c-0.038-0.082-0.076-0.161-0.114-0.242    c-0.378-0.816-0.759-1.618-1.143-2.409c-0.124-0.255-0.248-0.506-0.372-0.758c-0.323-0.656-0.649-1.304-0.976-1.943    c-0.112-0.219-0.224-0.441-0.337-0.659c-0.432-0.832-0.867-1.652-1.307-2.454c-0.052-0.095-0.105-0.187-0.157-0.282    c-0.389-0.705-0.781-1.398-1.176-2.08c-0.128-0.222-0.257-0.441-0.386-0.66c-0.348-0.592-0.699-1.175-1.051-1.749    c-0.111-0.18-0.221-0.363-0.331-0.541c-0.431-0.693-0.865-1.377-1.303-2.043c67.967,14.473,120.991,69.84,131.988,139.014    C409.588,152.868,392.968,147.377,375.565,147.377z" fill="#5a2b81"/>
	</g>
</g>
<g>
	<g>
		<path d="M265.799,42.251c-0.13-0.641-0.32-1.271-0.57-1.88c-0.25-0.601-0.56-1.181-0.92-1.721c-0.359-0.55-0.779-1.06-1.24-1.52    c-0.46-0.46-0.97-0.88-1.52-1.24c-0.54-0.359-1.12-0.67-1.73-0.92c-0.6-0.25-1.229-0.45-1.869-0.57c-1.291-0.26-2.61-0.26-3.9,0    c-0.64,0.12-1.27,0.32-1.87,0.57c-0.61,0.25-1.19,0.561-1.73,0.92c-0.55,0.36-1.06,0.78-1.52,1.24c-0.46,0.46-0.88,0.97-1.24,1.52    c-0.36,0.54-0.67,1.12-0.92,1.721c-0.25,0.609-0.44,1.239-0.57,1.88c-0.13,0.64-0.2,1.3-0.2,1.95c0,0.649,0.07,1.31,0.2,1.949    c0.13,0.64,0.32,1.27,0.57,1.87c0.25,0.61,0.56,1.19,0.92,1.73c0.36,0.55,0.78,1.06,1.24,1.52c0.46,0.46,0.97,0.88,1.52,1.24    c0.54,0.36,1.12,0.67,1.73,0.92c0.6,0.25,1.23,0.45,1.87,0.57c0.64,0.13,1.3,0.2,1.95,0.2c0.65,0,1.31-0.07,1.95-0.2    c0.64-0.12,1.27-0.32,1.869-0.57c0.61-0.25,1.19-0.56,1.73-0.92c0.55-0.36,1.06-0.78,1.52-1.24c0.461-0.46,0.881-0.97,1.24-1.52    c0.36-0.54,0.67-1.12,0.92-1.73c0.25-0.6,0.44-1.229,0.57-1.87c0.13-0.64,0.2-1.3,0.2-1.949    C265.999,43.551,265.929,42.89,265.799,42.251z" fill="#5a2b81"/>
	</g>
</g>
<g>
</g>
<g>
</g>
<g>
</g>
<g>
</g>
<g>
</g>
<g>
</g>
<g>
</g>
<g>
</g>
<g>
</g>
<g>
</g>
<g>
</g>
<g>
</g>
<g>
</g>
<g>
</g>
<g>
</g>
</svg>
