<?xml version="1.0" encoding="iso-8859-1"?>
<!-- Generator: Adobe Illustrator 19.0.0, SVG Export Plug-In . SVG Version: 6.00 Build 0)  -->
<svg xmlns="http://www.w3.org/2000/svg" xmlns:xlink="http://www.w3.org/1999/xlink" version="1.1" id="Capa_1" x="0px" y="0px" viewBox="0 0 512 512" style="enable-background:new 0 0 512 512;" xml:space="preserve" width="212px" height="212px">
<g>
	<g>
		<path d="M267.625,212.46c-5.16-1.831-10.69-2.097-15.986-0.77c-6.311,1.583-11.885,5.346-15.701,10.602    c-1.556,2.146-2.796,4.505-3.686,7.013c-2.476,6.975-2.087,14.494,1.095,21.176c3.182,6.681,8.775,11.723,15.748,14.197    c3.03,1.076,6.163,1.61,9.286,1.61c4.064,0,8.112-0.907,11.889-2.705c6.682-3.182,11.724-8.774,14.198-15.747    C289.577,233.439,282.022,217.57,267.625,212.46z M265.621,241.147c-1.42,4.004-5.836,6.103-9.837,4.684    c-1.94-0.688-3.496-2.091-4.381-3.949s-0.993-3.949-0.305-5.889c0.251-0.705,0.597-1.365,1.025-1.956    c1.059-1.459,2.613-2.505,4.376-2.947c0.611-0.153,1.233-0.229,1.855-0.229c0.872,0,1.744,0.15,2.582,0.447    C264.94,232.729,267.041,237.143,265.621,241.147z" fill="#5a2b81"/>
	</g>
</g>
<g>
	<g>
		<path d="M345.023,248.536c-3.182-6.683-8.774-11.725-15.746-14.198c-5.161-1.832-10.69-2.098-15.986-0.771    c-6.313,1.581-11.889,5.345-15.7,10.596c-1.559,2.146-2.8,4.51-3.688,7.018c-2.476,6.975-2.087,14.494,1.095,21.176    c3.18,6.681,8.774,11.724,15.747,14.197c3.03,1.076,6.163,1.61,9.286,1.61c4.063,0,8.111-0.906,11.89-2.705    c6.682-3.182,11.724-8.774,14.198-15.747C348.593,262.738,348.204,255.218,345.023,248.536z M327.27,263.025    c-1.421,4.005-5.835,6.104-9.838,4.685c-1.94-0.688-3.496-2.091-4.381-3.949c-0.885-1.858-0.993-3.951-0.302-5.895    c0.249-0.703,0.594-1.36,1.024-1.954c1.058-1.457,2.611-2.502,4.376-2.944c0.61-0.153,1.232-0.229,1.854-0.229    c0.872,0,1.744,0.15,2.583,0.448c1.938,0.688,3.494,2.09,4.379,3.948C327.85,258.993,327.958,261.085,327.27,263.025z" fill="#5a2b81"/>
	</g>
</g>
<g>
	<g>
		<path d="M453.759,376.025c-6.237-6.488-12.768-12.649-19.576-18.47c-2.871-2.455-5.795-4.846-8.762-7.178    c8.474-11.551,15.201-24.263,20.047-37.918c5.771-16.259,8.617-33.077,8.573-49.832c7.407-6.036,14.245-12.074,20.43-18.062    c31.971-30.955,43.849-57.861,34.349-77.812c-11.362-23.864-49.998-30.176-108.947-17.905    c-12.979-10.599-27.83-18.991-44.091-24.761c-27.49-9.756-56.915-11.179-85.096-4.111c-33.638,8.428-63.341,28.464-83.638,56.419    c-8.282,11.417-14.89,23.995-19.642,37.385c-5.719,16.113-8.539,32.954-8.49,49.774c-6.152,5.01-11.946,10.041-17.209,14.971    c-24.468,22.919-38.035,43.426-40.418,61.042c-5.947,4.072-11.759,8.38-17.419,12.943c-0.001,0.001-0.002,0.001-0.003,0.002    c-36.888,29.748-65.597,68.64-83.019,112.474c-1.225,3.08-0.843,6.566,1.019,9.309c1.862,2.743,4.96,4.385,8.274,4.385h491.698    c3.314,0,6.413-1.642,8.274-4.384c1.861-2.743,2.242-6.229,1.019-9.309C497.94,431.793,478.635,401.86,453.759,376.025z     M426.543,377.484c0.382,0.346,0.765,0.691,1.146,1.039c1.66,1.52,3.303,3.059,4.924,4.624c0.061,0.058,0.12,0.118,0.18,0.177    c-5.585,4.697-12.71,7.362-20.171,7.362c-17.274,0-31.329-14.059-31.329-31.34c0.001-4.491,0.97-8.909,2.798-12.944    c0.258,0.151,0.515,0.306,0.772,0.458c1.631,0.96,3.249,1.939,4.856,2.934c0.232,0.144,0.466,0.285,0.698,0.43    c0.333,0.208,0.665,0.417,0.997,0.626c1.539,0.969,3.065,1.958,4.582,2.959c0.61,0.403,1.221,0.804,1.828,1.213    c1.576,1.06,3.139,2.139,4.69,3.233c0.627,0.442,1.25,0.888,1.872,1.336c1.736,1.249,3.466,2.506,5.169,3.798    c0.001,0,0.001,0.001,0.002,0.001c1.807,1.37,3.589,2.774,5.359,4.192c0.42,0.336,0.839,0.673,1.257,1.012    c1.746,1.417,3.479,2.851,5.188,4.315c0.158,0.135,0.313,0.274,0.47,0.41C423.418,374.685,424.987,376.076,426.543,377.484z     M286.121,219.287c3.833,1.36,7.749,2.006,11.602,2.006c14.316,0,27.761-8.911,32.816-23.154c0,0,0-0.001,0.001-0.001    c3.652-10.295,2.143-21.184-3.167-29.841c3.891,0.864,7.748,1.956,11.547,3.305c43.677,15.5,69.382,59.26,63.891,103.471    c-17.167,11.154-36.05,22.008-56.06,32.176c-0.209-0.073-0.419-0.142-0.629-0.215c-0.694-0.24-1.389-0.478-2.084-0.712    c-0.619-0.209-1.238-0.416-1.858-0.621c-0.7-0.231-1.402-0.458-2.104-0.683c-0.619-0.199-1.239-0.396-1.859-0.59    c-0.706-0.221-1.413-0.438-2.12-0.653c-0.619-0.188-1.239-0.376-1.859-0.56c-0.712-0.211-1.425-0.418-2.139-0.623    c-0.622-0.179-1.244-0.357-1.867-0.532c-0.716-0.2-1.432-0.396-2.149-0.59c-0.622-0.169-1.244-0.337-1.867-0.502    c-0.722-0.19-1.445-0.376-2.168-0.56c-0.624-0.159-1.247-0.318-1.872-0.473c-0.724-0.179-1.45-0.353-2.176-0.527    c-0.626-0.15-1.251-0.3-1.878-0.445c-0.728-0.169-1.457-0.332-2.186-0.494c-0.628-0.14-1.256-0.281-1.885-0.417    c-0.73-0.158-1.462-0.309-2.193-0.461c-0.63-0.131-1.259-0.262-1.89-0.389c-0.735-0.147-1.472-0.288-2.208-0.429    c-0.629-0.121-1.258-0.243-1.888-0.359c-0.74-0.137-1.482-0.266-2.223-0.397c-0.628-0.111-1.256-0.223-1.885-0.329    c-0.746-0.126-1.494-0.245-2.241-0.365c-0.626-0.1-1.252-0.203-1.88-0.299c-0.749-0.115-1.498-0.222-2.248-0.331    c-0.629-0.091-1.258-0.185-1.887-0.272c-0.751-0.104-1.504-0.199-2.256-0.297c-0.627-0.081-1.255-0.166-1.883-0.242    c-0.76-0.093-1.521-0.178-2.282-0.265c-0.623-0.071-1.246-0.146-1.87-0.212c-0.762-0.082-1.525-0.155-2.288-0.23    c-0.624-0.062-1.248-0.127-1.873-0.184c-0.774-0.071-1.549-0.133-2.323-0.198c-0.613-0.051-1.226-0.106-1.839-0.153    c-0.789-0.06-1.578-0.111-2.367-0.165c-0.603-0.041-1.205-0.086-1.808-0.123c-0.81-0.05-1.62-0.089-2.431-0.131    c-0.582-0.031-1.163-0.066-1.745-0.093c-0.858-0.039-1.716-0.068-2.575-0.1c-0.536-0.02-1.071-0.044-1.606-0.061    c-0.934-0.029-1.868-0.046-2.802-0.065c-0.463-0.01-0.925-0.024-1.387-0.031c-1.395-0.021-2.791-0.032-4.187-0.032    c-1.574-0.002-3.144,0.013-4.713,0.04c-0.117,0.002-0.234,0.004-0.35,0.006c-0.393,0.007-0.786,0.022-1.179,0.031    c-0.01,0-0.019,0.001-0.029,0.001c-1.05,0.024-2.1,0.047-3.149,0.083c-0.246,0.008-0.492,0.018-0.739,0.026    c-0.391,0.014-0.782,0.035-1.173,0.051c-0.931,0.038-1.862,0.075-2.792,0.123c-0.382,0.019-0.763,0.041-1.145,0.062    c-0.333,0.018-0.665,0.041-0.997,0.06c-0.853,0.05-1.706,0.1-2.558,0.158c-0.516,0.035-1.033,0.073-1.549,0.111    c-0.266,0.02-0.533,0.041-0.799,0.061c-0.782,0.06-1.563,0.121-2.344,0.188c-0.647,0.055-1.294,0.114-1.941,0.174    c-0.204,0.019-0.407,0.036-0.611,0.056c-0.714,0.067-1.426,0.138-2.139,0.211c-0.674,0.069-1.348,0.141-2.021,0.215    c-0.887,0.097-1.773,0.199-2.659,0.305c-0.671,0.08-1.342,0.162-2.012,0.247c-0.891,0.113-1.781,0.232-2.67,0.354    c-0.661,0.091-1.322,0.181-1.981,0.277c-0.542,0.078-1.083,0.157-1.624,0.238c-0.025,0.004-0.05,0.007-0.075,0.01    c-7.261-20.824-7.241-43.372,0.18-64.284c3.138-8.842,7.492-17.133,12.937-24.641c9.559-13.166,22.317-23.645,36.931-30.585    C258.759,193.348,268.227,212.936,286.121,219.287z M283.817,181.559c0.479-1.351,1.143-2.615,1.969-3.755    c2.032-2.799,5.014-4.808,8.396-5.654c1.174-0.295,2.371-0.441,3.567-0.441c1.673,0,3.345,0.286,4.953,0.856    c7.684,2.727,11.715,11.198,8.99,18.883c-2.729,7.685-11.2,11.717-18.882,8.991C285.124,197.713,281.091,189.242,283.817,181.559z     M394.66,303.681c-3.151,6.872-7.056,13.308-11.703,19.238c-0.195-0.102-0.393-0.2-0.588-0.302    c-0.626-0.325-1.254-0.646-1.883-0.966c-0.609-0.31-1.218-0.62-1.83-0.926c-0.626-0.313-1.255-0.622-1.883-0.93    c-0.619-0.303-1.238-0.606-1.859-0.905c-0.624-0.3-1.25-0.596-1.875-0.891c-0.632-0.298-1.265-0.595-1.899-0.888    c-0.024-0.011-0.048-0.022-0.072-0.033C379.152,312.709,387.029,308.234,394.66,303.681z M426.622,305.769    c-4.198,11.831-10.023,22.839-17.362,32.835c-2.89-1.949-5.82-3.841-8.785-5.681c6.918-9.298,12.392-19.559,16.324-30.64    c1.804-5.082,3.226-10.208,4.297-15.347c4.09-2.755,8.083-5.525,11.963-8.306C431.92,287.78,429.779,296.871,426.622,305.769z     M490.764,175.349c5.146,10.81-6.428,31.825-30.205,54.846c-2.746,2.659-5.637,5.33-8.652,8.008    c-2.276-13.17-6.368-26.112-12.27-38.509c-5.901-12.393-13.363-23.724-22.149-33.791    C461.391,158.719,485.813,164.954,490.764,175.349z M186.254,220.468c4.112-11.586,9.826-22.464,16.98-32.328    c17.54-24.159,43.222-41.478,72.315-48.768c24.348-6.104,49.78-4.875,73.544,3.56c32.102,11.393,57.844,34.602,72.488,65.358    c6.843,14.37,10.877,29.585,12.072,44.991c-3.277,2.532-6.657,5.061-10.135,7.584c-0.961-47.31-30.747-91.373-77.91-108.111    c-21.826-7.747-45.177-8.877-67.529-3.271c-26.723,6.696-50.306,22.595-66.406,44.772c-6.572,9.062-11.82,19.053-15.598,29.698    c-8.619,24.288-8.957,50.4-1.16,74.719c-0.499,0.113-0.999,0.22-1.497,0.336c-0.095,0.022-0.189,0.046-0.283,0.068    c-1.418,0.332-2.834,0.675-4.247,1.03c-0.546,0.137-1.09,0.283-1.635,0.424c-0.844,0.218-1.689,0.43-2.53,0.656    C176.498,274.918,176.984,246.587,186.254,220.468z M155.38,293.12c1.809-1.695,3.708-3.407,5.644-5.125    c1.101,6.432,2.633,12.805,4.593,19.079c-4.014,1.397-7.991,2.876-11.922,4.453c-3.023,1.213-6.013,2.497-8.986,3.815    c-3.199,1.418-6.378,2.88-9.518,4.42c-0.025,0.012-0.049,0.025-0.073,0.037c-1.839,0.903-3.666,1.831-5.484,2.775    C135.528,313.579,144.254,303.541,155.38,293.12z M105.661,360.98c0.555-0.408,1.112-0.813,1.67-1.216    c1.067-0.77,2.139-1.53,3.216-2.283c0.514-0.359,1.026-0.722,1.543-1.077c1.478-1.017,2.964-2.02,4.461-3.004    c0.101-0.066,0.2-0.135,0.301-0.201c1.59-1.042,3.193-2.061,4.804-3.066c0.516-0.322,1.036-0.636,1.554-0.954    c1.127-0.692,2.258-1.376,3.395-2.05c0.586-0.347,1.173-0.691,1.761-1.033c1.136-0.661,2.277-1.31,3.423-1.952    c0.538-0.301,1.073-0.606,1.613-0.904c1.636-0.902,3.28-1.79,4.935-2.654c0.085-0.045,0.171-0.088,0.256-0.132    c1.623-0.845,3.257-1.669,4.898-2.479c0.557-0.275,1.118-0.542,1.677-0.813c1.176-0.569,2.356-1.132,3.541-1.683    c0.619-0.288,1.239-0.573,1.86-0.856c1.203-0.548,2.412-1.084,3.625-1.613c0.552-0.241,1.102-0.486,1.656-0.723    c1.743-0.745,3.492-1.476,5.253-2.183c0.138-0.056,0.279-0.107,0.417-0.163c1.636-0.653,3.281-1.288,4.932-1.907    c0.578-0.217,1.159-0.426,1.739-0.639c1.243-0.456,2.49-0.904,3.741-1.341c0.631-0.22,1.263-0.439,1.896-0.655    c0.448-0.152,0.9-0.296,1.349-0.446c0.285,1.99,0.428,4.01,0.428,6.051c0,23.279-18.939,42.218-42.219,42.218    c-10.839,0-21.113-4.147-28.856-11.396C104.906,361.546,105.281,361.259,105.661,360.98z M25.35,458.68    c2.516-5.378,5.242-10.652,8.126-15.835h340.403c5.522,0,10-4.478,10-10c0-5.522-4.478-10-10-10H45.841    c12.191-17.821,26.645-34.104,43.015-48.387c11.607,11.897,27.598,18.764,44.528,18.764c34.307,0,62.218-27.911,62.218-62.217    c0-3.955-0.373-7.857-1.101-11.682c4.031-1,8.085-1.906,12.162-2.706c0.024-0.005,0.047-0.01,0.071-0.015    c0.991-0.194,1.985-0.374,2.979-0.557c0.234-0.043,0.468-0.089,0.703-0.131c3.561-0.644,7.143-1.211,10.74-1.703    c0.331-0.045,0.662-0.088,0.994-0.132c1.497-0.199,2.997-0.385,4.499-0.557c0.332-0.038,0.664-0.077,0.996-0.114    c3.629-0.402,7.271-0.73,10.917-0.978c0.211-0.014,0.423-0.025,0.634-0.039c1.541-0.101,3.082-0.186,4.625-0.26    c0.477-0.023,0.955-0.043,1.433-0.063c1.332-0.056,2.664-0.1,3.996-0.135c0.488-0.013,0.975-0.029,1.463-0.039    c1.76-0.036,3.519-0.059,5.278-0.059c8.727,0,17.437,0.458,26.092,1.35c0.428,0.044,0.857,0.083,1.285,0.129    c2.594,0.281,5.181,0.601,7.763,0.96c1.505,0.209,3.007,0.437,4.507,0.673c24.551,3.866,48.463,11.297,70.791,22.054    c-3.343,6.921-5.132,14.563-5.132,22.342c0,28.309,23.025,51.339,51.328,51.339c12.661,0,24.729-4.686,34.014-12.9    c16.274,18.367,29.676,38.77,39.999,60.898H25.35z" fill="#5a2b81"/>
	</g>
</g>
<g>
	<g>
		<path d="M283.931,329.678c-22.36,0-40.551,18.19-40.551,40.551c0,22.359,18.19,40.55,40.551,40.55    c22.359,0,40.55-18.19,40.55-40.55S306.291,329.678,283.931,329.678z M283.931,390.78c-11.332,0-20.552-9.22-20.552-20.551    c0-11.333,9.22-20.552,20.552-20.552c11.332,0,20.551,9.22,20.551,20.552C304.482,381.56,295.263,390.78,283.931,390.78z" fill="#5a2b81"/>
	</g>
</g>
<g>
	<g>
		<path d="M420.681,430.891c-0.131-0.64-0.32-1.27-0.57-1.869c-0.25-0.601-0.561-1.181-0.92-1.73c-0.36-0.54-0.78-1.06-1.24-1.52    c-0.46-0.461-0.979-0.881-1.52-1.24c-0.551-0.36-1.131-0.67-1.73-0.92c-0.599-0.25-1.229-0.44-1.87-0.57    c-1.29-0.26-2.62-0.26-3.91,0c-0.64,0.13-1.27,0.32-1.87,0.57s-1.18,0.56-1.72,0.92c-0.55,0.359-1.06,0.779-1.53,1.24    c-0.46,0.46-0.88,0.979-1.239,1.52c-0.36,0.55-0.67,1.13-0.92,1.73s-0.44,1.229-0.57,1.869c-0.13,0.641-0.19,1.301-0.19,1.95    c0,0.66,0.061,1.311,0.19,1.96c0.13,0.641,0.32,1.271,0.57,1.87c0.25,0.601,0.56,1.18,0.92,1.72    c0.359,0.551,0.779,1.061,1.239,1.521c0.471,0.47,0.98,0.88,1.53,1.25c0.54,0.36,1.12,0.67,1.72,0.92    c0.601,0.25,1.23,0.44,1.87,0.57c0.65,0.13,1.301,0.189,1.96,0.189c0.65,0,1.301-0.06,1.95-0.189c0.641-0.13,1.271-0.32,1.87-0.57    c0.599-0.25,1.18-0.56,1.73-0.92c0.54-0.37,1.06-0.78,1.52-1.25c0.46-0.46,0.88-0.97,1.24-1.521c0.359-0.54,0.67-1.119,0.92-1.72    c0.25-0.61,0.439-1.229,0.57-1.87c0.13-0.649,0.199-1.3,0.199-1.96C420.88,432.192,420.811,431.532,420.681,430.891z" fill="#5a2b81"/>
	</g>
</g>
<g>
	<g>
		<path d="M195.74,126.365c-0.13-0.64-0.32-1.27-0.57-1.869c-0.25-0.61-0.56-1.19-0.92-1.73c-0.36-0.55-0.78-1.06-1.24-1.52    c-0.46-0.46-0.979-0.881-1.52-1.24c-0.55-0.36-1.13-0.67-1.73-0.92c-0.6-0.25-1.229-0.44-1.87-0.57c-1.29-0.26-2.619-0.26-3.909,0    c-0.64,0.129-1.27,0.32-1.87,0.57c-0.601,0.25-1.181,0.56-1.73,0.92c-0.54,0.359-1.06,0.78-1.52,1.24    c-0.46,0.46-0.88,0.97-1.24,1.52c-0.36,0.54-0.67,1.12-0.92,1.73c-0.25,0.6-0.44,1.229-0.57,1.869c-0.13,0.641-0.2,1.301-0.2,1.95    c0,0.65,0.07,1.311,0.2,1.96c0.13,0.63,0.32,1.261,0.57,1.87c0.25,0.601,0.56,1.18,0.92,1.72c0.36,0.551,0.78,1.061,1.24,1.521    c0.46,0.46,0.979,0.88,1.52,1.25c0.55,0.36,1.13,0.67,1.73,0.92c0.6,0.25,1.229,0.44,1.87,0.57c0.649,0.13,1.3,0.189,1.96,0.189    c0.649,0,1.31-0.06,1.949-0.189c0.641-0.13,1.271-0.32,1.87-0.57c0.601-0.25,1.181-0.56,1.73-0.92c0.54-0.37,1.06-0.79,1.52-1.25    c0.46-0.46,0.88-0.97,1.24-1.521c0.36-0.54,0.67-1.119,0.92-1.72c0.25-0.609,0.44-1.24,0.57-1.87c0.13-0.649,0.2-1.31,0.2-1.96    C195.94,127.666,195.87,127.005,195.74,126.365z" fill="#5a2b81"/>
	</g>
</g>
<g>
	<g>
		<path d="M184.076,84.518c-0.364-0.669-0.736-1.332-1.115-1.99c-17.488-30.353-50.046-49.209-84.967-49.209    C43.96,33.319,0,77.278,0,131.312s43.96,97.994,97.994,97.994c5.522,0,10-4.478,10-10c0-5.522-4.478-10-10-10    c-43.006,0-77.995-34.988-77.995-77.995c0-43.006,34.988-77.993,77.995-77.993c27.792,0,53.709,15.018,67.638,39.193    c0.301,0.521,0.595,1.046,0.883,1.574c2.642,4.851,8.714,6.64,13.564,3.997C184.929,95.439,186.719,89.367,184.076,84.518z" fill="#5a2b81"/>
	</g>
</g>
<g>
	<g>
		<path d="M97.994,73.317c-31.979,0-57.995,26.017-57.995,57.995c0,31.978,26.017,57.994,57.995,57.994    c31.978,0,57.994-26.017,57.994-57.994C155.988,99.334,129.972,73.317,97.994,73.317z M97.994,169.308    c-20.951,0-37.996-17.044-37.996-37.995s17.045-37.996,37.996-37.996c20.95,0,37.995,17.045,37.995,37.996    S118.944,169.308,97.994,169.308z" fill="#5a2b81"/>
	</g>
</g>
<g>
</g>
<g>
</g>
<g>
</g>
<g>
</g>
<g>
</g>
<g>
</g>
<g>
</g>
<g>
</g>
<g>
</g>
<g>
</g>
<g>
</g>
<g>
</g>
<g>
</g>
<g>
</g>
<g>
</g>
</svg>
