<?xml version="1.0" encoding="iso-8859-1"?>
<!-- Generator: Adobe Illustrator 19.0.0, SVG Export Plug-In . SVG Version: 6.00 Build 0)  -->
<svg xmlns="http://www.w3.org/2000/svg" xmlns:xlink="http://www.w3.org/1999/xlink" version="1.1" id="Capa_1" x="0px" y="0px" viewBox="0 0 512.001 512.001" style="enable-background:new 0 0 512.001 512.001;" xml:space="preserve" width="212px" height="212px">
<g>
	<g>
		<path d="M431.381,258.254c-3.147,0-6.175,0.51-9.014,1.441l-16.2-19.643c4-5.8,6.35-12.823,6.35-20.386c0-19.851-16.149-36-36-36    c-16.381,0-30.231,11.001-34.576,26H281.5v-18.931h46.978c5.523,0,10-4.477,10-10V61.84c0-5.523-4.477-10-10-10h-37.368    c1.764-4.401,2.724-9.146,2.724-14.007C293.833,16.972,276.861,0,256,0c-20.861,0-37.833,16.972-37.833,37.833    c0,4.862,0.96,9.606,2.724,14.007h-37.368c-5.523,0-10,4.477-10,10v118.895c0,5.523,4.477,10,10,10H230.5v18.931h-60.441    c-4.345-14.999-18.196-26-34.576-26c-19.851,0-36,16.149-36,36c0,7.563,2.35,14.586,6.35,20.386l-16.2,19.643    c-2.839-0.931-5.867-1.441-9.014-1.441c-15.991,0-29,13.009-29,29c0,15.991,13.009,29,29,29c0.822,0,1.635-0.043,2.44-0.11    l20.921,46.737L91.998,379.77c-2.067,2.914-2.423,6.709-0.933,9.956l11.018,24.013c1.683,3.669,5.307,5.833,9.095,5.833    c1.395,0,2.813-0.293,4.164-0.914c5.02-2.303,7.222-8.239,4.919-13.259l-8.61-18.765l8.606-12.13l14.808,1.388l8.61,18.765    c2.303,5.02,8.238,7.222,13.259,4.919c5.02-2.303,7.222-8.239,4.919-13.259l-11.018-24.013c-1.49-3.248-4.599-5.453-8.156-5.787    l-20.494-1.92l-21.001-46.916c5.211-5.246,8.436-12.466,8.436-20.426c0-5.553-1.571-10.744-4.289-15.158l15.959-19.351    c4.358,1.877,9.155,2.921,14.194,2.921c6.229,0,12.092-1.592,17.208-4.387l16.807,160.932c0.532,5.093,4.825,8.961,9.946,8.961    H230.5v20.759h-69.69c-5.523,0-10,4.477-10,10s4.477,10,10,10h14.119v21.402c0,15.807,12.86,28.667,28.667,28.667    s28.667-12.86,28.667-28.667v-21.402h47.478v21.402c0,15.807,12.86,28.667,28.667,28.667s28.667-12.86,28.667-28.667v-21.402    h14.119c5.523,0,10-4.477,10-10s-4.477-10-10-10H281.5v-20.759h51.057c5.121,0,9.414-3.868,9.946-8.961L359.31,251.28    c5.115,2.796,10.979,4.387,17.208,4.387c5.038,0,9.836-1.044,14.194-2.921l15.959,19.351c-2.718,4.414-4.289,9.605-4.289,15.158    c0,7.96,3.225,15.18,8.436,20.426l-21.001,46.916l-20.494,1.92c-3.557,0.333-6.666,2.539-8.156,5.787l-11.018,24.013    c-2.303,5.02-0.101,10.956,4.919,13.259c5.018,2.302,10.955,0.101,13.259-4.919l8.61-18.765l14.808-1.388l8.606,12.13    l-8.61,18.765c-2.303,5.02-0.101,10.957,4.919,13.259c1.351,0.62,2.768,0.914,4.164,0.914c3.788,0,7.412-2.164,9.095-5.833    l11.018-24.013c1.49-3.247,1.134-7.042-0.933-9.956l-11.982-16.889l20.921-46.737c0.805,0.068,1.618,0.11,2.44,0.11    c15.991,0,29-13.009,29-29C460.383,271.263,447.372,258.254,431.381,258.254z M80.619,296.254c-4.962,0-9-4.037-9-9    c0-4.962,4.038-9,9-9c4.962,0,9,4.038,9,9C89.619,292.216,85.581,296.254,80.619,296.254z M151.408,221.14    c-0.013,0.146-0.033,0.29-0.05,0.435c-0.042,0.355-0.096,0.706-0.161,1.053c-0.027,0.142-0.052,0.285-0.083,0.426    c-0.093,0.428-0.2,0.85-0.326,1.265c-0.012,0.04-0.021,0.08-0.033,0.12c-2.035,6.498-8.111,11.228-15.272,11.228    c-8.822,0-16-7.178-16-16s7.178-16,16-16c8.822,0,16,7.178,16,16C151.483,220.164,151.453,220.654,151.408,221.14z M203.594,492    c-4.779,0-8.667-3.888-8.667-8.667v-21.402h17.333v21.402h0.001C212.26,488.112,208.372,492,203.594,492z M299.738,461.931h17.334    v21.402c0,4.779-3.888,8.667-8.667,8.667s-8.667-3.888-8.667-8.667V461.931z M256,20c9.833,0,17.833,8,17.833,17.833    c0,5.475-2.559,10.648-6.807,14.007h-22.054c-4.247-3.359-6.805-8.532-6.805-14.007C238.167,28,246.167,20,256,20z     M193.522,170.735V71.84h124.956v98.895H193.522z M261.5,190.735v18.931h-11v-18.931H261.5z M261.5,441.931h-11v-20.759h11    V441.931z M326.872,369.334H245c-5.523,0-10,4.477-10,10s4.477,10,10,10h79.783l-1.237,11.838H188.453L173.68,259.71h99.62    c5.523,0,10-4.477,10-10c0-5.523-4.477-10-10-10H171.591l-1.049-10.043h170.916L326.872,369.334z M376.517,235.667    c-7.161,0-13.237-4.73-15.272-11.228c-0.012-0.04-0.021-0.08-0.033-0.12c-0.126-0.415-0.233-0.837-0.326-1.265    c-0.031-0.141-0.056-0.284-0.083-0.426c-0.065-0.347-0.119-0.698-0.161-1.053c-0.017-0.145-0.037-0.29-0.05-0.435    c-0.045-0.486-0.075-0.976-0.075-1.473c0-8.822,7.178-16,16-16c8.822,0,16,7.178,16,16S385.339,235.667,376.517,235.667z     M431.381,296.254c-4.962,0-9-4.038-9-9c0-4.962,4.038-9,9-9c4.962,0,9,4.038,9,9    C440.381,292.216,436.343,296.254,431.381,296.254z" fill="#5a2b81"/>
	</g>
</g>
<g>
	<g>
		<path d="M288.75,138.749h-65.5c-5.523,0-10,4.477-10,10c0,5.523,4.477,10,10,10h65.5c5.523,0,10-4.478,10-10    C298.75,143.226,294.273,138.749,288.75,138.749z" fill="#5a2b81"/>
	</g>
</g>
<g>
	<g>
		<path d="M224.875,87.5c-5.523,0-10,4.477-10,10v11c0,5.523,4.477,10,10,10s10-4.477,10-10v-11    C234.875,91.977,230.398,87.5,224.875,87.5z" fill="#5a2b81"/>
	</g>
</g>
<g>
	<g>
		<path d="M287.125,87.5c-5.523,0-10,4.477-10,10v11c0,5.523,4.477,10,10,10s10-4.477,10-10v-11    C297.125,91.977,292.648,87.5,287.125,87.5z" fill="#5a2b81"/>
	</g>
</g>
<g>
	<g>
		<path d="M256,269.419c-25.364,0-46,20.636-46,46s20.636,46,46,46s46-20.635,46-46C302,290.055,281.364,269.419,256,269.419z     M256,341.419c-14.336,0-26-11.663-26-26c0-14.336,11.664-26,26-26s26,11.664,26,26S270.336,341.419,256,341.419z" fill="#5a2b81"/>
	</g>
</g>
<g>
	<g>
		<path d="M320.1,247.76c-0.12-0.64-0.32-1.27-0.57-1.87c-0.25-0.61-0.56-1.19-0.92-1.73c-0.36-0.55-0.78-1.06-1.24-1.52    c-0.46-0.46-0.97-0.88-1.52-1.24c-0.54-0.36-1.12-0.67-1.73-0.92c-0.6-0.25-1.23-0.45-1.87-0.57c-1.29-0.26-2.61-0.26-3.9,0    c-0.64,0.12-1.27,0.32-1.88,0.57c-0.6,0.25-1.18,0.56-1.72,0.92c-0.55,0.36-1.06,0.78-1.52,1.24c-0.46,0.46-0.88,0.97-1.25,1.52    c-0.36,0.54-0.66,1.12-0.91,1.73c-0.25,0.6-0.45,1.23-0.58,1.87c-0.13,0.64-0.19,1.3-0.19,1.95c0,0.65,0.06,1.31,0.19,1.95    c0.13,0.64,0.33,1.27,0.58,1.87c0.25,0.61,0.55,1.19,0.91,1.73c0.37,0.55,0.79,1.06,1.25,1.52c0.46,0.46,0.97,0.88,1.52,1.24    c0.54,0.36,1.12,0.67,1.72,0.92c0.61,0.25,1.24,0.45,1.88,0.57c0.64,0.13,1.3,0.2,1.95,0.2s1.31-0.07,1.95-0.2    c0.64-0.12,1.27-0.32,1.87-0.57c0.61-0.25,1.19-0.56,1.73-0.92c0.55-0.36,1.06-0.78,1.52-1.24c0.46-0.46,0.88-0.97,1.24-1.52    c0.36-0.54,0.67-1.12,0.92-1.73c0.25-0.6,0.45-1.23,0.57-1.87c0.13-0.64,0.2-1.3,0.2-1.95C320.3,249.06,320.23,248.4,320.1,247.76    z" fill="#5a2b81"/>
	</g>
</g>
<g>
	<g>
		<path d="M217.799,377.38c-0.12-0.64-0.32-1.27-0.57-1.87c-0.25-0.6-0.56-1.19-0.92-1.73c-0.36-0.55-0.78-1.06-1.24-1.52    c-2.32-2.32-5.77-3.39-9.02-2.73c-0.64,0.13-1.27,0.32-1.87,0.57c-0.61,0.25-1.19,0.56-1.73,0.92c-0.55,0.36-1.06,0.78-1.52,1.24    c-0.46,0.46-0.88,0.97-1.24,1.52c-0.36,0.54-0.67,1.13-0.92,1.73c-0.25,0.6-0.45,1.23-0.57,1.87c-0.13,0.64-0.2,1.3-0.2,1.95    c0,0.66,0.07,1.31,0.2,1.96c0.12,0.64,0.32,1.26,0.57,1.87c0.25,0.6,0.56,1.18,0.92,1.72c0.36,0.55,0.78,1.06,1.24,1.52    c0.46,0.47,0.97,0.88,1.52,1.25c0.54,0.36,1.12,0.67,1.73,0.92c0.6,0.25,1.23,0.44,1.87,0.57s1.3,0.19,1.95,0.19    c2.63,0,5.21-1.06,7.07-2.93c0.46-0.46,0.88-0.97,1.24-1.52c0.36-0.54,0.67-1.12,0.92-1.72c0.25-0.61,0.45-1.23,0.57-1.87    c0.13-0.65,0.2-1.3,0.2-1.96C218,378.68,217.93,378.02,217.799,377.38z" fill="#5a2b81"/>
	</g>
</g>
<g>
</g>
<g>
</g>
<g>
</g>
<g>
</g>
<g>
</g>
<g>
</g>
<g>
</g>
<g>
</g>
<g>
</g>
<g>
</g>
<g>
</g>
<g>
</g>
<g>
</g>
<g>
</g>
<g>
</g>
</svg>
