<?xml version="1.0" encoding="iso-8859-1"?>
<!-- Generator: Adobe Illustrator 19.0.0, SVG Export Plug-In . SVG Version: 6.00 Build 0)  -->
<svg xmlns="http://www.w3.org/2000/svg" xmlns:xlink="http://www.w3.org/1999/xlink" version="1.1" id="Capa_1" x="0px" y="0px" viewBox="0 0 512 512" style="enable-background:new 0 0 512 512;" xml:space="preserve" width="212px" height="212px">
<g>
	<g>
		<path d="M473.964,375.031l-16.818-12.083l4.606-50.989c0.784-0.198,1.566-0.43,2.345-0.697    c15.124-5.192,23.203-21.722,18.011-36.846c0,0,0,0,0-0.001c-5.193-15.124-21.719-23.199-36.847-18.009    c-2.943,1.011-5.652,2.464-8.066,4.285l-35.869-22.011v-34.312c0-5.523-4.478-10-10-10h-26.339    c-0.574-56.219-43.919-102.372-98.981-107.404V74.145c15.976-4.395,27.75-19.042,27.75-36.395c0-20.815-16.935-37.75-37.75-37.75    s-37.75,16.935-37.75,37.75c0,17.354,11.774,32,27.75,36.395v12.818c-55.062,5.033-98.407,51.186-98.981,107.404h-26.339    c-5.523,0-10,4.477-10,10v34.312l-35.878,22.017c-2.383-1.803-5.081-3.269-8.057-4.291c-15.123-5.193-31.653,2.887-36.846,18.009    c-2.516,7.327-2.028,15.194,1.374,22.153c3.401,6.959,9.31,12.178,16.636,14.693c0.776,0.267,1.558,0.499,2.345,0.698    l4.607,50.988L38.049,375.03c-2.902,2.085-4.471,5.559-4.116,9.114l2.622,26.29c0.515,5.158,4.862,9.008,9.938,9.008    c0.332,0,0.667-0.017,1.005-0.05c5.495-0.548,9.506-5.448,8.958-10.943l-2.049-20.544l12.079-8.678l13.554,6.122l2.049,20.544    c0.548,5.496,5.454,9.503,10.943,8.958c5.496-0.548,9.506-5.447,8.958-10.943l-2.622-26.29c-0.354-3.555-2.579-6.651-5.835-8.122    l-18.76-8.472l-4.624-51.179c6.918-3.408,12.106-9.297,14.611-16.593c1.803-5.252,2.003-10.672,0.866-15.73l25.059-15.377v11.197    c0,5.523,4.477,10,10,10h26.325v48.667h-7.005c-5.523,0-10,4.477-10,10v58.212c-23.162,7.324-40,29.012-40,54.564    c0,31.549,25.667,57.215,57.215,57.215h217.57c31.549,0,57.215-25.667,57.215-57.215c0-25.552-16.838-47.24-40-54.564v-58.212    c0-5.523-4.478-10-10-10H365v-48.667h26.324c5.522,0,10-4.477,10-10v-11.196l25.046,15.369c-1.166,5.178-0.887,10.591,0.88,15.738    c2.585,7.529,7.981,13.31,14.613,16.579l-4.625,51.193l-18.76,8.472c-3.256,1.471-5.479,4.566-5.834,8.121l-2.622,26.29    c-0.549,5.496,3.462,10.395,8.958,10.943c5.492,0.553,10.396-3.463,10.942-8.958l2.05-20.545l13.555-6.121l12.078,8.677    l-2.049,20.544c-0.549,5.496,3.462,10.395,8.958,10.943c0.337,0.034,0.672,0.05,1.004,0.05c5.076,0,9.425-3.851,9.938-9.008    l2.622-26.29C478.435,380.589,476.866,377.115,473.964,375.031z M65.845,286.757c-0.781,2.274-2.4,4.107-4.56,5.163    c-2.16,1.055-4.602,1.207-6.875,0.426c-2.274-0.781-4.107-2.4-5.163-4.56c-1.055-2.16-1.206-4.601-0.426-6.875    c1.28-3.729,4.781-6.078,8.52-6.078c0.967,0,1.951,0.157,2.915,0.489C64.95,276.934,67.457,282.063,65.845,286.757z     M238.256,37.75c0-9.788,7.962-17.75,17.75-17.75c9.787,0,17.75,7.962,17.75,17.75s-7.963,17.75-17.75,17.75    C246.219,55.5,238.256,47.538,238.256,37.75z M167.011,195.495c0-49.072,39.923-88.995,88.995-88.995s88.995,39.923,88.995,88.995    v136.514h-177.99V195.495z M150.006,352.009h212v12.78h-145.75c-5.523,0-10,4.477-10,10s4.477,10,10,10h145.75v12.781h-212    V352.009z M130.687,263.342v-48.974h16.325v48.974H130.687z M402.006,454.785c0,20.521-16.694,37.215-37.215,37.215h-217.57    c-20.521,0-37.215-16.695-37.215-37.215c0-20.52,16.695-37.215,37.215-37.215h217.57    C385.312,417.57,402.006,434.264,402.006,454.785z M381.326,263.342h-16.324v-48.974h16.324V263.342z M450.727,291.92    c-2.159-1.056-3.779-2.89-4.56-5.164c-0.781-2.273-0.63-4.715,0.426-6.875c1.056-2.16,2.89-3.779,5.164-4.56    c0.965-0.331,1.948-0.488,2.915-0.488c3.738,0,7.238,2.349,8.52,6.077c1.611,4.694-0.896,9.824-5.59,11.436    C455.33,293.126,452.888,292.975,450.727,291.92z" fill="#5a2b81"/>
	</g>
</g>
<g>
	<g>
		<path d="M322.557,262.87c-0.121-0.63-0.321-1.26-0.571-1.87c-0.25-0.6-0.56-1.18-0.92-1.72c-0.359-0.55-0.779-1.06-1.24-1.52    c-0.46-0.46-0.97-0.88-1.52-1.25c-0.54-0.36-1.12-0.66-1.73-0.91c-0.6-0.25-1.229-0.45-1.869-0.57c-1.29-0.26-2.61-0.26-3.9,0    c-0.64,0.12-1.27,0.32-1.88,0.57c-0.601,0.25-1.18,0.55-1.72,0.91c-0.551,0.37-1.061,0.79-1.521,1.25    c-0.46,0.46-0.88,0.97-1.24,1.52c-0.37,0.54-0.67,1.12-0.92,1.72c-0.25,0.61-0.45,1.24-0.569,1.87c-0.131,0.65-0.2,1.31-0.2,1.96    c0,0.65,0.069,1.31,0.2,1.95c0.119,0.64,0.319,1.27,0.569,1.87c0.25,0.61,0.55,1.19,0.92,1.73c0.36,0.55,0.78,1.06,1.24,1.52    c0.46,0.46,0.97,0.88,1.521,1.24c0.54,0.36,1.119,0.67,1.72,0.92c0.61,0.25,1.24,0.44,1.88,0.57s1.3,0.2,1.95,0.2    c0.649,0,1.31-0.07,1.95-0.2s1.27-0.32,1.869-0.57c0.61-0.25,1.19-0.56,1.73-0.92c0.55-0.36,1.06-0.78,1.52-1.24    c1.86-1.86,2.931-4.44,2.931-7.07C322.757,264.18,322.687,263.52,322.557,262.87z" fill="#5a2b81"/>
	</g>
</g>
<g>
	<g>
		<path d="M275.756,254.829h-76.5c-5.523,0-10,4.477-10,10c0,5.523,4.477,10,10,10h76.5c5.522,0,10-4.477,10-10    S281.279,254.829,275.756,254.829z" fill="#5a2b81"/>
	</g>
</g>
<g>
	<g>
		<path d="M151.756,426.535c-15.577,0-28.25,12.673-28.25,28.25c0,15.577,12.673,28.25,28.25,28.25    c15.577,0,28.25-12.673,28.25-28.25C180.006,439.208,167.333,426.535,151.756,426.535z M151.756,463.035    c-4.549,0-8.25-3.701-8.25-8.25s3.701-8.25,8.25-8.25c4.549,0,8.25,3.701,8.25,8.25S156.305,463.035,151.756,463.035z" fill="#5a2b81"/>
	</g>
</g>
<g>
	<g>
		<path d="M221.256,426.535c-15.577,0-28.25,12.673-28.25,28.25c0,15.577,12.673,28.25,28.25,28.25    c15.577,0,28.25-12.673,28.25-28.25C249.506,439.208,236.833,426.535,221.256,426.535z M221.256,463.035    c-4.549,0-8.25-3.701-8.25-8.25s3.701-8.25,8.25-8.25c4.549,0,8.25,3.701,8.25,8.25S225.805,463.035,221.256,463.035z" fill="#5a2b81"/>
	</g>
</g>
<g>
	<g>
		<path d="M290.756,426.535c-15.577,0-28.25,12.673-28.25,28.25c0,15.577,12.673,28.25,28.25,28.25    c15.577,0,28.25-12.673,28.25-28.25C319.006,439.208,306.333,426.535,290.756,426.535z M290.756,463.035    c-4.549,0-8.25-3.701-8.25-8.25s3.701-8.25,8.25-8.25s8.25,3.701,8.25,8.25S295.305,463.035,290.756,463.035z" fill="#5a2b81"/>
	</g>
</g>
<g>
	<g>
		<path d="M360.256,426.535c-15.577,0-28.25,12.673-28.25,28.25c0,15.577,12.673,28.25,28.25,28.25    c15.577,0,28.25-12.673,28.25-28.25C388.506,439.208,375.833,426.535,360.256,426.535z M360.256,463.035    c-4.549,0-8.25-3.701-8.25-8.25s3.701-8.25,8.25-8.25s8.25,3.701,8.25,8.25S364.805,463.035,360.256,463.035z" fill="#5a2b81"/>
	</g>
</g>
<g>
	<g>
		<path d="M316.006,181.667h-120c-5.523,0-10,4.477-10,10V230c0,5.523,4.477,10,10,10h120c5.522,0,10-4.477,10-10v-38.333    C326.006,186.144,321.529,181.667,316.006,181.667z M306.006,220h-100v-18.333h100V220z" fill="#5a2b81"/>
	</g>
</g>
<g>
	<g>
		<path d="M189.056,372.84c-0.13-0.64-0.32-1.27-0.57-1.88c-0.25-0.6-0.56-1.18-0.92-1.72c-0.36-0.55-0.78-1.06-1.24-1.52    c-1.86-1.86-4.44-2.93-7.07-2.93s-5.21,1.07-7.07,2.93c-0.46,0.46-0.88,0.97-1.24,1.52c-0.36,0.54-0.67,1.12-0.92,1.72    c-0.25,0.61-0.45,1.24-0.57,1.88c-0.13,0.64-0.2,1.3-0.2,1.95c0,0.65,0.07,1.31,0.2,1.95c0.12,0.64,0.32,1.27,0.57,1.87    c0.25,0.61,0.56,1.19,0.92,1.73c0.36,0.55,0.78,1.06,1.24,1.52c1.86,1.86,4.44,2.93,7.07,2.93s5.21-1.07,7.07-2.93    c0.46-0.46,0.88-0.97,1.24-1.52c0.36-0.54,0.67-1.12,0.92-1.73c0.25-0.6,0.44-1.23,0.57-1.87c0.13-0.64,0.2-1.3,0.2-1.95    S189.186,373.48,189.056,372.84z" fill="#5a2b81"/>
	</g>
</g>
<g>
</g>
<g>
</g>
<g>
</g>
<g>
</g>
<g>
</g>
<g>
</g>
<g>
</g>
<g>
</g>
<g>
</g>
<g>
</g>
<g>
</g>
<g>
</g>
<g>
</g>
<g>
</g>
<g>
</g>
</svg>
