<?xml version="1.0" encoding="iso-8859-1"?>
<!-- Generator: Adobe Illustrator 19.0.0, SVG Export Plug-In . SVG Version: 6.00 Build 0)  -->
<svg xmlns="http://www.w3.org/2000/svg" xmlns:xlink="http://www.w3.org/1999/xlink" version="1.1" id="Capa_1" x="0px" y="0px" viewBox="0 0 511.875 511.875" style="enable-background:new 0 0 511.875 511.875;" xml:space="preserve" width="112px" height="112px">
<g>
	<g>
		<path d="M457.238,287.375c-0.5-0.5-1-0.9-1.5-1.2c-0.5-0.4-1.1-0.7-1.7-0.9c-0.6-0.3-1.2-0.4-1.9-0.6c-1.3-0.3-2.6-0.3-3.9,0    c-0.6,0.1-1.3,0.3-1.9,0.6c-0.6,0.3-1.2,0.6-1.7,0.9c-0.5,0.4-1.1,0.8-1.5,1.2c-1.9,1.9-2.9,4.4-2.9,7.1c0,0.6,0.1,1.3,0.2,2    c0,0.6,0.2,1.3,0.4,1.9c0.3,0.6,0.6,1.2,0.9,1.7c0.4,0.5,0.8,1.1,1.3,1.5c0.5,0.4,1,0.9,1.5,1.3c0.5,0.4,1.1,0.7,1.7,0.9    c0.6,0.3,1.2,0.5,1.9,0.6c0.6,0.1,1.3,0.2,2,0.2s1.3-0.1,2-0.2c0.6-0.1,1.3-0.3,1.9-0.6c0.6-0.3,1.2-0.5,1.7-0.9    c0.5-0.4,1.1-0.8,1.5-1.3c0.4-0.5,0.9-1,1.2-1.5c0.4-0.5,0.7-1.1,0.9-1.7c0.3-0.6,0.4-1.2,0.6-1.9c0.2-0.7,0.2-1.3,0.2-2    C460.138,291.875,459.038,289.275,457.238,287.375z" fill="#5a2b81"/>
	</g>
</g>
<g>
	<g>
		<path d="M68.738,287.475c-2.3-2.3-5.8-3.4-9-2.7c-0.6,0.1-1.3,0.3-1.9,0.6c-0.6,0.3-1.2,0.6-1.7,0.9c-0.5,0.4-1.1,0.8-1.5,1.2    c-1.9,1.9-2.9,4.4-2.9,7.1c0,0.6,0.1,1.3,0.2,2c0.1,0.7,0.1,1.2,0.4,1.8c0.3,0.6,0.6,1.2,0.9,1.7c0.4,0.5,0.8,1.1,1.2,1.5    c0.4,0.4,1,0.9,1.5,1.3c0.5,0.4,1.1,0.7,1.7,0.9c0.6,0.3,1.2,0.5,1.9,0.6c0.6,0.1,1.3,0.2,2,0.2c2.6,0,5.2-1.1,7.1-2.9    c0.5-0.5,0.9-1,1.3-1.5c0.4-0.5,0.7-1.1,0.9-1.7c0.3-0.6,0.4-1.2,0.6-1.9c0.2-0.7,0.2-1.3,0.2-2    C71.637,291.975,70.538,289.375,68.738,287.475z" fill="#5a2b81"/>
	</g>
</g>
<g>
	<g>
		<path d="M255.837,144.575c-47.4,0-85.9,38.5-85.9,85.9c0,47.4,38.5,85.9,85.9,85.9c47.3,0,85.9-38.5,85.9-85.9    C341.738,183.075,303.238,144.575,255.837,144.575z M255.837,296.475c-36.4,0-65.9-29.5-65.9-65.9c0-36.4,29.6-65.9,65.9-65.9    s65.9,29.5,65.9,65.9C321.738,266.875,292.238,296.475,255.837,296.475z" fill="#5a2b81"/>
	</g>
</g>
<g>
	<g>
		<path d="M255.837,179.775c-28,0-50.7,22.7-50.7,50.7s22.7,50.7,50.7,50.7c27.9,0,50.7-22.7,50.7-50.7    S283.837,179.775,255.837,179.775z M255.837,261.175c-16.9,0-30.7-13.8-30.7-30.7c0-16.9,13.8-30.7,30.7-30.7    c16.9,0,30.7,13.8,30.7,30.7C286.538,247.375,272.738,261.175,255.837,261.175z" fill="#5a2b81"/>
	</g>
</g>
<g>
	<g>
		<path d="M317.438,343.675c-0.6-0.5-1.2-0.9-1.7-1.3c-0.5-0.4-1.1-0.7-1.7-0.9c-0.6-0.3-1.2-0.4-1.9-0.6c-1.3-0.3-2.6-0.3-3.9,0    c-0.6,0.1-1.3,0.3-1.9,0.6c-0.6,0.3-1.2,0.6-1.7,0.9c-0.5,0.4-1.1,0.8-1.5,1.3c-1.9,1.9-2.9,4.4-2.9,7.1c0,0.6,0.1,1.3,0.2,2    c0.1,0.7,0.3,1.3,0.6,1.9c0.3,0.6,0.6,1.2,0.9,1.7c0.4,0.5,0.8,1.1,1.2,1.5c0.4,0.4,1,0.9,1.5,1.2c0.5,0.4,1.1,0.7,1.7,0.9    c0.6,0.3,1.2,0.4,1.9,0.6c0.6,0.1,1.3,0.2,2,0.2s1.3-0.1,2-0.2c0.6-0.1,1.3-0.3,1.9-0.6c0.6-0.3,1.2-0.6,1.7-0.9    c0.5-0.4,1.1-0.8,1.5-1.2c0.4-0.4,0.9-1,1.3-1.5c0.4-0.5,0.7-1.1,0.9-1.7c0.3-0.6,0.4-1.2,0.6-1.9c0.1-0.6,0.2-1.3,0.2-2    C320.338,348.175,319.238,345.575,317.438,343.675z" fill="#5a2b81"/>
	</g>
</g>
<g>
	<g>
		<path d="M497.238,290.675c-16-41.2-39.5-62.3-40.4-63.2c-3.8-3.4-9.5-3.4-13.3,0c-1,0.9-24.4,22-40.4,63.2    c-2.5,6.4-4.7,12.9-6.5,19.6h-32.9c2.9-25.8,4.5-50.4,4.5-70.6c0-49.1-9.6-95.9-28.4-139.1c-31.3-71.6-77.1-98.2-79-99.3    c-3.1-1.7-6.8-1.7-9.9,0c-1.9,1.1-47.7,27.6-79,99.3c-18.9,43.2-28.4,90-28.4,139.1c0,20.2,1.6,44.8,4.5,70.6h-32.8    c-1.9-6.7-4-13.2-6.5-19.6c-16-41.2-39.5-62.3-40.4-63.2c-3.8-3.4-9.5-3.4-13.3,0c-1,0.9-24.4,22-40.4,63.2    c-9.7,25-14.6,52-14.6,80.3c0,14.1,1.3,32.4,3.5,51.5c1.7,14.1,3.8,28.1,6.3,40.5c2.9,14.6,5.9,26.4,9.1,35.1    c1.4,3.9,5.2,6.5,9.4,6.5h66.8c4.2,0,7.9-2.6,9.4-6.5c3.2-8.7,6.3-20.5,9.1-35.1c2.4-12.4,4.6-26.4,6.3-40.5    c0.6-4.6,1-9.2,1.5-13.8l63.4,37.3c0.1,0,0.2,0.1,0.3,0.1c0.2,0.1,0.5,0.2,0.7,0.4c0.2,0.1,0.3,0.1,0.5,0.2    c0.2,0.1,0.5,0.2,0.7,0.2c0.2,0,0.3,0.1,0.5,0.1c0.3,0.1,0.5,0.1,0.8,0.2c0.1,0,0.3,0.1,0.4,0.1c0.4,0,0.7,0.1,1.1,0.1h0.1h19    c11.7,26.5,38.1,59.3,39.4,60.8c1.9,2.3,4.8,3.7,7.8,3.7s5.9-1.4,7.8-3.7c1.2-1.5,27.7-34.3,39.4-60.8h19h0.1c0.4,0,0.8,0,1.1-0.1    c0.1,0,0.3-0.1,0.4-0.1c0.3,0,0.5-0.1,0.8-0.2c0.2,0,0.3-0.1,0.5-0.1c0.2-0.1,0.5-0.2,0.7-0.2c0.2-0.1,0.3-0.1,0.5-0.2    c0.2-0.1,0.5-0.2,0.7-0.4c0.1,0,0.2-0.1,0.3-0.1l63.4-37.3c0.4,4.5,0.9,9.1,1.5,13.8c1.7,14.1,3.8,28.1,6.3,40.5    c2.9,14.6,5.9,26.4,9.1,35.1c1.4,3.9,5.2,6.5,9.4,6.5h66.8c4.2,0,7.9-2.6,9.4-6.5c3.2-8.7,6.3-20.5,9.1-35.1    c2.4-12.4,4.6-26.4,6.3-40.5c1.9-19.1,3.1-37.4,3.1-51.5C511.837,342.575,506.938,315.575,497.238,290.675z M93.837,459.175    c-1.9,9.9-4,18.6-6.1,25.5h-52.4c-2.1-6.9-4.2-15.6-6.1-25.5c-1.7-8.6-3.3-18.1-4.6-27.8h73.8    C97.137,441.075,95.538,450.575,93.837,459.175z M103.337,373.275c0,0.3,0,0.5,0,0.8c0,0.5,0,1,0,1.5c0,0.3,0,0.7,0,1    c0,0.5,0,0.9,0,1.4c0,0.3,0,0.7,0,1.1c0,0.5,0,0.9,0,1.4c0,0.3,0,0.7,0,1c0,0.5,0,1-0.1,1.5c0,0.3,0,0.7,0,1c0,0.5,0,1.1-0.1,1.6    c0,0.3,0,0.6,0,0.9c0,0.6-0.1,1.2-0.1,1.8c0,0.3,0,0.6,0,0.8c0,0.6-0.1,1.3-0.1,2c-0.4,6.5-1,13.3-1.7,20.4h-29.7v-79.8    c0-5.5-4.5-10-10-10s-10,4.5-10,10v79.8h-29.3c-1.6-15.1-2.4-29.1-2.4-40.4c0-26,4.5-50.6,13.3-73.2c9.2-23.6,21.1-39.9,28.5-48.5    c7.2,8.5,19.1,24.7,28.4,48.5c3.2,8.2,5.8,16.6,7.8,25.3c0.4,1.6,0.7,3.1,1.1,4.7c0,0.2,0.1,0.4,0.1,0.6c0.4,1.8,0.7,3.6,1,5.5    c0.1,0.4,0.1,0.8,0.2,1.2c0.2,1.5,0.5,2.9,0.7,4.4c0.1,0.5,0.1,0.9,0.2,1.4c0.2,1.6,0.4,3.2,0.6,4.8c0,0.3,0.1,0.5,0.1,0.8    c0.2,1.9,0.4,3.9,0.6,5.8c0,0.2,0,0.4,0,0.5c0.1,1.7,0.3,3.4,0.4,5c0,0.5,0.1,1,0.1,1.6c0.1,1.4,0.1,2.8,0.2,4.3    c0,0.5,0,1.1,0.1,1.6c0,1.9,0.1,3.8,0.1,5.7C103.337,371.775,103.337,372.575,103.337,373.275z M255.837,21.875    c10.8,7.7,37.2,29.7,59,72.6h-118C218.538,51.875,245.038,29.675,255.837,21.875z M122.837,386.475c0-0.2,0-0.4,0-0.6    c0-0.9,0.1-1.8,0.1-2.6c0-0.4,0-0.9,0.1-1.3c0-1,0.1-2.1,0.1-3.1c0-0.4,0-0.8,0-1.2c0-0.8,0-1.6,0-2.4c0-0.4,0-0.7,0-1.1    c0-1.1,0-2.2,0-3.3c0-1.7,0-3.5-0.1-5.2c0-1.3-0.1-2.7-0.1-4c0-0.4,0-0.8,0-1.2c-0.1-1.6-0.2-3.2-0.3-4.8c0-0.1,0-0.2,0-0.3    c-0.1-1.7-0.2-3.4-0.4-5.1c0,0,0,0,0-0.1c-0.1-1.6-0.3-3.3-0.5-4.9c0-0.1,0-0.1,0-0.2c-0.2-1.5-0.4-3-0.5-4.5c0-0.2,0-0.4-0.1-0.6    c-0.2-1.4-0.4-2.7-0.6-4.1c-0.1-0.3-0.1-0.7-0.2-1c-0.2-1.2-0.4-2.4-0.6-3.6c-0.1-0.4-0.1-0.9-0.2-1.3h30.7    c1.6,11.6,3.3,23.2,5.3,34.4c0.9,5.2,1.8,10.4,2.8,15.5c0,0.1,0.1,0.3,0.1,0.4c0.3,1.4,0.6,2.9,0.8,4.3c0.1,0.4,0.2,0.8,0.3,1.3    c0.2,1.2,0.5,2.3,0.7,3.5c0.1,0.5,0.2,1,0.3,1.5c0.2,1.1,0.5,2.2,0.7,3.4c0.1,0.5,0.2,0.9,0.3,1.4c0.3,1.5,0.7,3.1,1,4.6    c0.2,0.9,0.4,1.8,0.6,2.7c0.1,0.3,0.1,0.6,0.2,0.8c0.2,0.6,0.3,1.2,0.5,1.9c0.1,0.3,0.2,0.6,0.2,0.9c0.2,0.6,0.4,1.2,0.5,1.9    c0.1,0.2,0.1,0.5,0.2,0.7c0.3,0.8,0.5,1.7,0.8,2.5L122.837,386.475z M255.837,485.475c-7.1-9.5-17.7-24.4-24.9-38.1h49.8    C273.438,461.075,262.938,475.975,255.837,485.475z M325.738,408.475c0,0.3-0.1,0.6-0.2,0.9c-0.1,0.2-0.2,0.5-0.3,0.7    c-0.1,0.3-0.2,0.6-0.3,0.8s-0.2,0.5-0.3,0.7c-0.1,0.3-0.2,0.5-0.3,0.8c-0.1,0.2-0.2,0.5-0.3,0.7c-0.1,0.3-0.2,0.5-0.3,0.8    c-0.1,0.2-0.2,0.4-0.3,0.7c-0.1,0.3-0.2,0.5-0.3,0.8c-0.1,0.2-0.2,0.4-0.3,0.6c-0.1,0.3-0.2,0.5-0.3,0.7s-0.2,0.4-0.3,0.6    s-0.2,0.5-0.3,0.7s-0.2,0.4-0.3,0.6s-0.2,0.5-0.3,0.7s-0.2,0.4-0.3,0.5c-0.1,0.2-0.2,0.5-0.3,0.7s-0.2,0.3-0.3,0.5    s-0.2,0.4-0.3,0.7c-0.1,0.2-0.2,0.3-0.2,0.5c-0.1,0.2-0.2,0.4-0.3,0.6c-0.1,0.1-0.2,0.3-0.2,0.4c-0.1,0.2-0.2,0.4-0.3,0.6    c-0.1,0.1-0.2,0.3-0.2,0.4c-0.1,0.2-0.2,0.4-0.3,0.6c-0.1,0.1-0.1,0.2-0.2,0.4c-0.1,0.2-0.2,0.4-0.3,0.6c-0.1,0.1-0.1,0.2-0.2,0.3    c-0.1,0.2-0.2,0.4-0.3,0.5c-0.1,0.1-0.1,0.2-0.2,0.3c-0.1,0.2-0.2,0.3-0.3,0.5h-122.2c-2.4-3.9-6.1-10.6-9.2-19.1h140.1    C325.837,408.375,325.837,408.375,325.738,408.475z M342.438,318.975c-1.9,15-4.1,30-6.6,44.4c0,0.1,0,0.2-0.1,0.3    c-0.2,1.3-0.5,2.6-0.7,3.9c-0.1,0.3-0.1,0.7-0.2,1c-0.2,1.1-0.4,2.2-0.6,3.4c-0.1,0.5-0.2,1-0.3,1.5c-0.2,1-0.4,1.9-0.5,2.9    c-0.1,0.6-0.2,1.3-0.4,1.9c-0.2,0.8-0.3,1.7-0.5,2.5c-0.1,0.7-0.3,1.5-0.4,2.2c-0.2,0.8-0.3,1.5-0.5,2.3s-0.3,1.6-0.5,2.4    c0,0.2-0.1,0.4-0.1,0.6h-150.5c0-0.2-0.1-0.4-0.1-0.6c-0.2-0.8-0.3-1.6-0.5-2.4c-0.2-0.8-0.3-1.5-0.5-2.3    c-0.1-0.7-0.3-1.5-0.4-2.2c-0.2-0.8-0.3-1.7-0.5-2.5c-0.1-0.6-0.2-1.3-0.4-1.9c-0.2-1-0.4-1.9-0.6-2.9c-0.1-0.5-0.2-1-0.3-1.5    c-0.2-1.1-0.4-2.3-0.6-3.4c-0.1-0.3-0.1-0.6-0.2-0.9c-0.2-1.3-0.5-2.7-0.7-4c0-0.1,0-0.1,0-0.2c-0.2-0.9-0.3-1.8-0.5-2.7h100.9    c5.5,0,10-4.5,10-10s-4.5-10-10-10h-104c-1.1-7.2-2.1-14.5-3-21.7v-0.1c-3.6-28.9-5.7-56.9-5.7-79.3c0-44.2,8.1-86.2,24.2-125.2    h136.3c16.1,39,24.2,81,24.2,125.1c0,22.4-2.1,50.4-5.7,79.3V318.975z M391.638,331.675c-0.2,1.2-0.4,2.4-0.6,3.6    c0,0.3-0.1,0.6-0.1,1c-0.2,1.4-0.4,2.8-0.6,4.1c0,0.2,0,0.3-0.1,0.5c-0.2,1.5-0.4,3.1-0.6,4.6c0,0,0,0,0,0.1    c-0.4,3.4-0.7,6.7-0.9,10.1c0,0.1,0,0.1,0,0.2c-0.1,1.6-0.2,3.3-0.3,5c0,0.4,0,0.7,0,1.1c-0.1,1.4-0.1,2.7-0.1,4.1    c0,1.7-0.1,3.5-0.1,5.2c0,1.1,0,2.1,0,3.2c0,0.4,0,0.7,0,1.1c0,0.8,0,1.5,0,2.3c0,0.4,0,0.8,0,1.3c0,1,0.1,1.9,0.1,2.9    c0,0.5,0,1,0.1,1.5c0,0.9,0.1,1.7,0.1,2.6c0.3-0.1,0.3,0.1,0.3,0.3l-43,25.3c0.3-0.8,0.5-1.6,0.8-2.5c0.1-0.2,0.1-0.5,0.2-0.7    c0.2-0.6,0.4-1.2,0.5-1.8c0.1-0.3,0.2-0.6,0.2-0.9c0.2-0.6,0.3-1.2,0.5-1.8c0.1-0.3,0.1-0.6,0.2-0.8c0.2-0.9,0.4-1.8,0.6-2.7    c0.3-1.5,0.7-3.1,1-4.6c0.1-0.4,0.2-0.9,0.3-1.3c0.2-1.1,0.5-2.2,0.7-3.4c0.1-0.5,0.2-1,0.3-1.5c0.2-1.2,0.5-2.3,0.7-3.5    c0.1-0.4,0.2-0.8,0.2-1.2c0.3-1.4,0.6-2.9,0.8-4.3c0-0.1,0.1-0.3,0.1-0.4c3.1-16,5.8-32.9,8.1-50h30.8    C391.738,330.775,391.738,331.175,391.638,331.675z M482.438,459.175c-1.9,9.9-4,18.6-6.1,25.5h-52.4c-2.1-6.9-4.2-15.6-6.1-25.5    c-1.7-8.6-3.3-18.1-4.6-27.8h73.8C485.637,441.075,484.137,450.575,482.438,459.175z M489.437,411.375h-29.3v-79.8    c0-5.5-4.5-10-10-10s-10,4.5-10,10v79.8h-29.3c-0.7-7-1.3-13.9-1.7-20.3c0-0.7-0.1-1.4-0.1-2.1c0-0.2,0-0.5,0-0.7    c0-0.6-0.1-1.2-0.1-1.9c0-0.3,0-0.6,0-0.9c0-0.6-0.1-1.1-0.1-1.6c0-0.3,0-0.7,0-1c0-0.5,0-1-0.1-1.5c0-0.3,0-0.7,0-1    c0-0.5,0-0.9,0-1.4c0-0.3,0-0.7,0-1c0-0.5,0-0.9,0-1.4c0-0.3,0-0.7,0-1c0-0.5,0-1,0-1.5c0-0.3,0-0.5,0-0.8c0-0.8,0-1.5,0-2.2    c0-1.9,0-3.8,0.1-5.7c0-0.5,0-1.1,0.1-1.6c0-1.4,0.1-2.9,0.2-4.3c0-0.5,0.1-1,0.1-1.5c0.1-1.7,0.2-3.4,0.4-5.1c0-0.2,0-0.4,0-0.5    c0.2-1.9,0.4-3.9,0.6-5.8c0-0.3,0.1-0.5,0.1-0.7c0.2-1.6,0.4-3.2,0.6-4.8c0.1-0.5,0.1-0.9,0.2-1.4c0.2-1.5,0.5-2.9,0.7-4.4    c0.1-0.4,0.1-0.8,0.2-1.2c0.3-1.8,0.7-3.7,1-5.5c0-0.2,0.1-0.4,0.1-0.6c0.3-1.6,0.7-3.2,1.1-4.7c2-8.7,4.6-17.1,7.8-25.3    c8.8-23.7,20.8-40,28.1-48.5c7.3,8.6,19.3,24.8,28.4,48.4c8.8,22.6,13.3,47.2,13.3,73.1    C491.837,382.175,491.038,396.275,489.437,411.375z" fill="#5a2b81"/>
	</g>
</g>
<g>
</g>
<g>
</g>
<g>
</g>
<g>
</g>
<g>
</g>
<g>
</g>
<g>
</g>
<g>
</g>
<g>
</g>
<g>
</g>
<g>
</g>
<g>
</g>
<g>
</g>
<g>
</g>
<g>
</g>
</svg>
