<?xml version="1.0" encoding="iso-8859-1"?>
<!-- Generator: Adobe Illustrator 19.0.0, SVG Export Plug-In . SVG Version: 6.00 Build 0)  -->
<svg xmlns="http://www.w3.org/2000/svg" xmlns:xlink="http://www.w3.org/1999/xlink" version="1.1" id="Capa_1" x="0px" y="0px" viewBox="0 0 512 512" style="enable-background:new 0 0 512 512;" xml:space="preserve" width="112px" height="112px">
<g>
	<g>
		<path d="M255.998,100.31c-18.748,0-34,15.252-34,34v94c0,5.523,4.478,10,10,10h48c5.522,0,10-4.477,10-10v-94    C289.998,115.562,274.746,100.31,255.998,100.31z M269.998,218.31h-28v-84c0-7.72,6.28-14,14-14c7.72,0,14,6.28,14,14V218.31z" fill="#5a2b81"/>
	</g>
</g>
<g>
	<g>
		<path d="M265.797,263.65c-0.13-0.64-0.32-1.27-0.57-1.88c-0.25-0.6-0.56-1.18-0.92-1.72c-0.359-0.55-0.779-1.06-1.24-1.52    c-2.319-2.33-5.779-3.39-9.02-2.74c-0.64,0.13-1.27,0.32-1.88,0.57c-0.601,0.25-1.18,0.56-1.72,0.92    c-0.551,0.37-1.061,0.79-1.521,1.25c-0.46,0.46-0.88,0.97-1.25,1.52c-0.36,0.54-0.67,1.12-0.92,1.72    c-0.25,0.61-0.44,1.24-0.57,1.88s-0.188,1.3-0.188,1.95c0,0.65,0.06,1.31,0.189,1.95c0.129,0.64,0.32,1.27,0.57,1.87    c0.25,0.61,0.56,1.19,0.92,1.73c0.37,0.55,0.79,1.06,1.25,1.52c0.46,0.46,0.97,0.88,1.521,1.24c0.54,0.36,1.119,0.67,1.72,0.92    c0.61,0.25,1.24,0.44,1.88,0.57c0.64,0.13,1.3,0.2,1.95,0.2c0.649,0,1.31-0.07,1.95-0.2s1.27-0.32,1.869-0.57    c0.61-0.25,1.19-0.56,1.73-0.92c0.55-0.36,1.06-0.78,1.52-1.24c0.461-0.46,0.881-0.97,1.24-1.52c0.36-0.54,0.67-1.12,0.92-1.73    c0.25-0.6,0.44-1.23,0.57-1.87c0.13-0.64,0.2-1.3,0.2-1.95C265.997,264.95,265.927,264.29,265.797,263.65z" fill="#5a2b81"/>
	</g>
</g>
<g>
	<g>
		<path d="M430.497,464.658l-0.256-73.393c-0.001-0.15-0.005-0.301-0.012-0.451c-3.082-63.422-33.808-103.754-60.916-139.339    c-21.534-28.266-41.872-54.976-46.104-89.871c-0.103-19.667-3.08-39.168-8.867-57.978c-0.069-0.228-0.148-0.453-0.234-0.675    c-0.095-0.244-9.577-24.653-20.334-48.744c-6.385-14.3-11.99-25.749-16.659-34.029C269.908,7.398,264.143,0,255.998,0    c-8.145,0-13.91,7.398-21.116,20.176c-4.669,8.28-10.273,19.729-16.659,34.029c-10.757,24.091-20.238,48.5-20.333,48.744    c-0.086,0.222-0.164,0.447-0.234,0.675c-5.787,18.808-8.765,38.309-8.868,57.979c-4.232,34.896-24.571,61.605-46.104,89.871    c-27.108,35.584-57.834,75.917-60.916,139.339c-0.007,0.15-0.011,0.3-0.012,0.451L81.5,464.657c0,0.006-0.001,0.011-0.001,0.017    V502c0,5.523,4.478,10,10,10c5.522,0,10-4.477,10-10v-32.837l28.714-27.872l34.022,10.161    c4.604,16.339,21.148,37.674,26.779,44.611c1.899,2.34,4.752,3.698,7.765,3.698s5.865-1.359,7.765-3.698    c3.429-4.225,10.909-13.795,17.275-24.321h64.362c6.366,10.526,13.846,20.096,17.275,24.321c1.899,2.339,4.752,3.698,7.765,3.698    s5.865-1.358,7.765-3.698c5.631-6.937,22.175-28.273,26.779-44.611l34.022-10.161l28.714,27.872V502c0,5.523,4.478,10,10,10    c5.522,0,10-4.477,10-10v-37.326C430.498,464.669,430.497,464.663,430.497,464.658z M163.022,326.429v103.789l-26.69-7.972V387    c0-5.523-4.478-10-10-10c-5.522,0-10,4.477-10,10v39.893l-14.75,14.317l0.172-49.648c2.841-57.088,30.291-93.119,56.838-127.967    c10.886-14.289,21.488-28.206,30.186-43.108v50.178l-18.012,27.206C164.916,306.705,162.244,316.569,163.022,326.429z     M214.523,443.846c-0.01,0.622-0.308,4.173-5.239,13.037c-0.024,0.043-0.04,0.09-0.063,0.133    c-2.809,4.995-6.483,10.678-10.447,16.227c-8.473-11.858-15.668-24.37-15.745-29.35c0-0.016,0.002-0.032,0.002-0.048    c0-0.04-0.002-0.089-0.004-0.134c0.049-8.101,6.238-14.773,14.141-15.578c0.529-0.054,1.066-0.081,1.609-0.081    c8.652,0,15.694,7.012,15.75,15.651C214.526,443.75,214.524,443.798,214.523,443.846z M214.571,325.108    c-0.026,0.299-0.04,0.599-0.04,0.899v85.706c-0.04-0.02-0.082-0.036-0.123-0.056c-0.494-0.242-0.997-0.472-1.506-0.692    c-0.066-0.029-0.13-0.061-0.197-0.089c-0.578-0.245-1.164-0.474-1.756-0.689c-0.177-0.064-0.357-0.12-0.536-0.182    c-0.418-0.144-0.838-0.286-1.263-0.415c-0.228-0.069-0.458-0.131-0.688-0.196c-0.384-0.108-0.769-0.213-1.157-0.308    c-0.247-0.061-0.496-0.117-0.745-0.172c-0.381-0.085-0.763-0.164-1.148-0.236c-0.254-0.048-0.508-0.094-0.764-0.137    c-0.395-0.065-0.792-0.122-1.191-0.174c-0.247-0.032-0.493-0.067-0.742-0.095c-0.437-0.048-0.877-0.083-1.318-0.115    c-0.214-0.016-0.425-0.037-0.64-0.049c-0.656-0.036-1.317-0.058-1.982-0.058s-1.325,0.022-1.981,0.058    c-0.215,0.012-0.427,0.033-0.641,0.049c-0.441,0.032-0.88,0.067-1.317,0.115c-0.249,0.027-0.496,0.062-0.744,0.095    c-0.398,0.052-0.794,0.108-1.188,0.174c-0.257,0.043-0.512,0.089-0.767,0.137c-0.383,0.072-0.764,0.151-1.143,0.235    c-0.251,0.056-0.502,0.112-0.751,0.174c-0.385,0.095-0.767,0.198-1.147,0.306c-0.233,0.066-0.467,0.128-0.698,0.199    c-0.418,0.127-0.831,0.266-1.243,0.408c-0.185,0.064-0.372,0.122-0.556,0.188c-0.59,0.214-1.173,0.442-1.748,0.686    c-0.084,0.036-0.165,0.076-0.249,0.113c-0.49,0.213-0.976,0.434-1.455,0.667c-0.042,0.021-0.086,0.038-0.128,0.059v-85.706    c0-0.3-0.014-0.601-0.04-0.899c-0.431-4.766,0.696-9.649,3.269-14.246c0.368-0.657,0.765-1.307,1.191-1.951l11.336-17.122    l11.337,17.122c0.426,0.644,0.823,1.295,1.191,1.951C213.875,315.458,215.002,320.342,214.571,325.108z M285.206,297.87    c-0.731,1.104-1.413,2.225-2.044,3.359c-3.788,6.807-5.77,14.12-5.83,21.503c-0.01,1.231,0.033,2.463,0.131,3.695v117.378V444    c0,0.263,0.01,0.524,0.03,0.782c0.003,0.069,0.012,0.141,0.016,0.21c0.016,0.273,0.037,0.548,0.063,0.827    c0.158,1.854,0.519,3.815,1.118,5.925h-12.692V302.599c0-5.523-4.478-10-10-10c-5.522,0-10,4.477-10,10v149.145h-12.692    c0.6-2.111,0.961-4.073,1.118-5.929c0.026-0.276,0.047-0.549,0.063-0.819c0.004-0.07,0.013-0.142,0.016-0.212    c0.021-0.259,0.03-0.52,0.03-0.784v-0.193V326.428c0.097-1.232,0.141-2.465,0.131-3.695c-0.06-7.383-2.041-14.696-5.83-21.503    c-0.631-1.134-1.313-2.255-2.044-3.359l-18.013-27.206l0.001-108.022l0.003-0.343c0-0.003,0-0.007,0-0.01    c0.036-17.787,2.686-35.426,7.884-52.439c1.08-2.769,8.784-22.416,17.805-42.94c11.108-25.276,17.823-37.358,21.528-43.065    c3.705,5.707,10.421,17.789,21.529,43.064c9.02,20.523,16.724,40.169,17.805,42.939c5.198,17.016,7.847,34.655,7.883,52.44    c0,0.003,0,0.007,0,0.01l0.004,108.365L285.206,297.87z M328.968,443.891c-0.078,4.97-7.276,17.485-15.752,29.352    c-3.945-5.52-7.603-11.174-10.406-16.154c-0.036-0.068-0.061-0.14-0.098-0.208c-4.932-8.863-5.229-12.415-5.239-13.037    c0-0.043-0.003-0.096-0.004-0.147c0.059-8.637,7.1-15.647,15.75-15.647c0.543,0,1.08,0.028,1.609,0.081    c7.905,0.805,14.095,7.48,14.142,15.582c-0.001,0.044-0.003,0.091-0.004,0.13C328.966,443.859,328.968,443.875,328.968,443.891z     M329.011,325.108c-0.026,0.299-0.04,0.599-0.04,0.899v85.706c-0.042-0.021-0.086-0.038-0.128-0.059    c-0.48-0.234-0.967-0.456-1.459-0.669c-0.082-0.036-0.162-0.076-0.245-0.111c-0.575-0.244-1.159-0.472-1.749-0.686    c-0.184-0.067-0.371-0.125-0.556-0.188c-0.408-0.142-0.82-0.281-1.239-0.408c-0.231-0.07-0.465-0.133-0.698-0.199    c-0.38-0.107-0.762-0.211-1.147-0.306c-0.249-0.061-0.5-0.118-0.751-0.174c-0.379-0.084-0.76-0.163-1.143-0.235    c-0.255-0.048-0.51-0.095-0.767-0.137c-0.394-0.065-0.79-0.121-1.188-0.174c-0.248-0.033-0.495-0.067-0.744-0.095    c-0.436-0.048-0.876-0.083-1.317-0.115c-0.214-0.016-0.426-0.037-0.641-0.049c-0.656-0.036-1.316-0.058-1.981-0.058    s-1.325,0.022-1.982,0.058c-0.214,0.012-0.426,0.033-0.64,0.049c-0.441,0.032-0.882,0.067-1.318,0.115    c-0.249,0.027-0.495,0.062-0.742,0.095c-0.399,0.052-0.796,0.109-1.191,0.174c-0.256,0.042-0.51,0.089-0.764,0.137    c-0.385,0.073-0.767,0.151-1.148,0.236c-0.249,0.056-0.498,0.112-0.745,0.172c-0.389,0.096-0.773,0.2-1.157,0.308    c-0.229,0.065-0.46,0.127-0.688,0.196c-0.425,0.129-0.844,0.27-1.263,0.415c-0.178,0.061-0.359,0.117-0.536,0.182    c-0.593,0.215-1.179,0.444-1.756,0.689c-0.066,0.028-0.131,0.06-0.197,0.089c-0.509,0.22-1.012,0.449-1.509,0.692    c-0.04,0.02-0.082,0.036-0.123,0.056v-85.706c0-0.3-0.014-0.601-0.04-0.899c-0.369-4.085,0.406-8.256,2.255-12.259    c0.616-1.334,1.352-2.65,2.204-3.938l11.337-17.122l11.336,17.123c0.853,1.287,1.588,2.603,2.205,3.937    C328.605,316.852,329.38,321.023,329.011,325.108z M395.665,426.893V387c0-5.523-4.478-10-10-10c-5.522,0-10,4.477-10,10v35.245    l-26.69,7.972V326.428c0.097-1.232,0.141-2.465,0.131-3.696c-0.07-8.614-2.756-17.133-7.875-24.862l-18.012-27.206v-50.178    c8.697,14.902,19.3,28.819,30.186,43.108c26.547,34.848,53.997,70.879,56.838,127.967l0.173,49.648L395.665,426.893z" fill="#5a2b81"/>
	</g>
</g>
<g>
</g>
<g>
</g>
<g>
</g>
<g>
</g>
<g>
</g>
<g>
</g>
<g>
</g>
<g>
</g>
<g>
</g>
<g>
</g>
<g>
</g>
<g>
</g>
<g>
</g>
<g>
</g>
<g>
</g>
</svg>
