<?xml version="1.0" encoding="iso-8859-1"?>
<!-- Generator: Adobe Illustrator 19.0.0, SVG Export Plug-In . SVG Version: 6.00 Build 0)  -->
<svg xmlns="http://www.w3.org/2000/svg" xmlns:xlink="http://www.w3.org/1999/xlink" version="1.1" id="Capa_1" x="0px" y="0px" viewBox="0 0 512 512" style="enable-background:new 0 0 512 512;" xml:space="preserve" width="112px" height="112px">
<g>
	<g>
		<path d="M191.229,290.03c-0.129-0.64-0.33-1.27-0.58-1.88c-0.25-0.6-0.55-1.18-0.909-1.72c-0.37-0.55-0.79-1.06-1.25-1.52    c-0.46-0.46-0.971-0.88-1.521-1.25c-0.54-0.36-1.12-0.66-1.72-0.91c-0.61-0.25-1.24-0.45-1.87-0.57c-1.29-0.26-2.62-0.26-3.91,0    c-0.64,0.12-1.27,0.32-1.87,0.57c-0.609,0.25-1.189,0.55-1.729,0.91c-0.551,0.37-1.061,0.79-1.521,1.25    c-0.46,0.46-0.88,0.97-1.24,1.52c-0.359,0.54-0.67,1.12-0.92,1.72c-0.25,0.61-0.439,1.24-0.569,1.88s-0.2,1.3-0.2,1.95    c0,0.65,0.07,1.31,0.2,1.95s0.319,1.27,0.569,1.87c0.25,0.61,0.561,1.19,0.92,1.73c0.36,0.55,0.78,1.06,1.24,1.52    c0.46,0.46,0.97,0.88,1.521,1.24c0.54,0.36,1.12,0.67,1.729,0.92c0.601,0.25,1.23,0.44,1.87,0.57s1.3,0.2,1.95,0.2    c0.649,0,1.31-0.07,1.96-0.2c0.63-0.13,1.26-0.32,1.87-0.57c0.6-0.25,1.18-0.56,1.72-0.92c0.55-0.36,1.061-0.78,1.521-1.24    c0.46-0.46,0.88-0.97,1.25-1.52c0.359-0.54,0.659-1.12,0.909-1.73c0.25-0.6,0.45-1.23,0.58-1.87c0.13-0.64,0.19-1.3,0.19-1.95    S191.358,290.67,191.229,290.03z" fill="#5a2b81"/>
	</g>
</g>
<g>
	<g>
		<path d="M340.378,290.02c-0.13-0.63-0.32-1.26-0.57-1.87c-0.25-0.6-0.56-1.18-0.92-1.72c-0.359-0.55-0.78-1.06-1.24-1.52    c-0.46-0.46-0.97-0.88-1.52-1.24c-0.54-0.37-1.12-0.67-1.73-0.92c-0.6-0.25-1.229-0.45-1.869-0.58c-1.289-0.26-2.619-0.26-3.909,0    c-0.63,0.13-1.261,0.33-1.87,0.58c-0.601,0.25-1.181,0.55-1.72,0.92c-0.551,0.36-1.061,0.78-1.521,1.24    c-0.46,0.46-0.88,0.97-1.25,1.52c-0.36,0.54-0.67,1.12-0.92,1.72c-0.25,0.61-0.44,1.24-0.57,1.87    c-0.13,0.65-0.189,1.31-0.189,1.96c0,0.65,0.06,1.31,0.189,1.95c0.13,0.64,0.32,1.27,0.57,1.87c0.25,0.61,0.56,1.19,0.92,1.73    c0.37,0.55,0.79,1.06,1.25,1.52c1.86,1.86,4.44,2.93,7.07,2.93s5.21-1.07,7.069-2.93c0.46-0.46,0.881-0.97,1.24-1.52    c0.36-0.54,0.67-1.12,0.92-1.73c0.25-0.6,0.44-1.23,0.57-1.87c0.13-0.64,0.2-1.3,0.2-1.95S340.508,290.67,340.378,290.02z" fill="#5a2b81"/>
	</g>
</g>
<g>
	<g>
		<path d="M322.148,127.92H189.853c-5.522,0-10,4.477-10,10v42.835c0,5.524,4.477,10.001,10,10.001h132.295c5.522,0,10-4.477,10-10    V137.92C332.148,132.397,327.67,127.92,322.148,127.92z M312.148,170.755H199.853V147.92h112.295V170.755z" fill="#5a2b81"/>
	</g>
</g>
<g>
	<g>
		<path d="M322.148,203.568H189.853c-5.522,0-10,4.477-10,10v42.836c0,5.523,4.477,10,10,10h132.295c5.522,0,10-4.477,10-10v-42.836    C332.148,208.045,327.67,203.568,322.148,203.568z M312.148,246.404H199.853v-22.836h112.295V246.404z" fill="#5a2b81"/>
	</g>
</g>
<g>
	<g>
		<path d="M466.139,292.462l-6.372-5.412c-3.734-3.171-9.214-3.17-12.948,0l-6.37,5.412c-20.686,17.57-35.101,40.871-41.732,66.587    l-26.759-19.434V221.461c0-20.379-2.327-40.83-6.918-60.783c-5.403-23.489-13.938-46.196-25.365-67.49    c-0.001-0.001-0.001-0.003-0.002-0.004c-16.107-30.011-37.417-56.391-63.339-78.408l-13.86-11.773    c-3.732-3.171-9.215-3.171-12.947,0l-13.86,11.773c-25.922,22.017-47.231,48.397-63.339,78.408    c-0.001,0.001-0.001,0.003-0.002,0.004c-11.427,21.294-19.961,44.001-25.365,67.49c-4.591,19.953-6.918,40.403-6.918,60.783    v118.155l-26.759,19.434c-6.631-25.716-21.046-49.017-41.731-66.586l-6.371-5.413c-3.734-3.171-9.216-3.17-12.948,0l-6.372,5.413    C16.716,317.219,0,353.349,0,391.59v83.999c0,5.523,4.478,10,10,10h38.707v4.003c0,5.523,4.478,10,10,10c5.522,0,10-4.477,10-10    v-4.003h38.707c5.522,0,10-4.477,10-10v-5.417h79.879v31.204c0,5.523,4.478,10,10,10h97.414c5.522,0,10-4.477,10-10v-31.204    h79.879v5.417c0,5.523,4.478,10,10,10h38.707v4.003c0,5.523,4.478,10,10,10c5.522,0,10-4.477,10-10v-4.003H502    c5.522,0,10-4.477,10-10V391.59C512,353.349,495.284,317.219,466.139,292.462z M48.707,465.588H20v-17.88h28.707V465.588z     M97.414,465.588H68.707v-17.88h28.707V465.588z M97.414,427.709H68.707v-48.065c0-5.523-4.478-10-10-10c-5.522,0-10,4.477-10,10    v48.065H20V391.59c0-32.314,14.107-62.85,38.707-83.797c21.135,17.997,34.515,43.073,37.868,70.273    c0.107,0.868,0.204,1.738,0.291,2.61c0.029,0.287,0.056,0.574,0.082,0.861c0.076,0.825,0.14,1.652,0.197,2.48    c0.021,0.301,0.043,0.602,0.062,0.903c0.051,0.84,0.089,1.68,0.12,2.521c0.01,0.279,0.026,0.557,0.034,0.837    c0.033,1.105,0.053,2.21,0.053,3.312V427.709z M140.043,450.172h-22.629v-0.001V391.59c0-1.582-0.039-3.158-0.096-4.732    c-0.013-0.357-0.028-0.713-0.044-1.07c-0.07-1.575-0.159-3.146-0.285-4.711l23.054-16.743V450.172z M248.613,30.02L256,23.745    l7.387,6.274c19.671,16.708,36.475,36.13,50.111,57.894H198.502C212.139,66.15,228.942,46.728,248.613,30.02z M217.293,491.375    v-21.204H246v19.42c0,0.61,0.063,1.204,0.168,1.784H217.293z M294.707,491.375h-28.875c0.105-0.58,0.168-1.174,0.168-1.784v-19.42    h28.707V491.375z M294.707,450.171H266v-70.528c0-5.523-4.478-10-10-10c-5.522,0-10,4.477-10,10v70.528h-28.707v-32.795    c0-32.314,14.106-62.849,38.707-83.796c24.6,20.947,38.707,51.482,38.707,83.796V450.171z M351.957,344.712v105.459h-11.379    V328.979c0-5.523-4.478-10-10-10c-5.522,0-10,4.477-10,10v121.192h-5.871v-32.795c0-38.24-16.716-74.371-45.861-99.127    l-6.371-5.412c-3.734-3.171-9.215-3.171-12.949,0l-6.37,5.412c-29.146,24.756-45.862,60.887-45.862,99.127v32.795h-5.871V328.979    c0-5.523-4.478-10-10-10c-5.522,0-10,4.477-10,10v121.192h-11.379V344.712h-0.001V221.461c0-18.873,2.156-37.814,6.408-56.299    c4.563-19.83,11.534-39.061,20.749-57.248h137.6c9.215,18.188,16.187,37.418,20.749,57.248    c4.252,18.485,6.408,37.427,6.408,56.299V344.712z M394.726,385.788c-0.016,0.357-0.031,0.712-0.044,1.069    c-0.057,1.574-0.096,3.151-0.096,4.732v58.582h-22.629v-85.837l23.054,16.743C394.885,382.642,394.796,384.214,394.726,385.788z     M443.293,465.588h-28.707v-17.88h28.707V465.588z M492,465.588h-28.707v-17.88H492V465.588z M492,427.709h-28.707v-48.065    c0-5.523-4.478-10-10-10c-5.522,0-10,4.477-10,10v48.065h-28.707V391.59c0-1.103,0.02-2.208,0.053-3.314    c0.008-0.276,0.024-0.551,0.034-0.827c0.032-0.843,0.07-1.687,0.121-2.53c0.018-0.3,0.041-0.6,0.062-0.9    c0.057-0.83,0.122-1.66,0.198-2.488c0.026-0.283,0.053-0.566,0.081-0.849c0.087-0.876,0.184-1.751,0.292-2.622    c3.353-27.197,16.732-52.271,37.866-70.267C477.893,328.74,492,359.276,492,391.59V427.709z" fill="#5a2b81"/>
	</g>
</g>
<g>
</g>
<g>
</g>
<g>
</g>
<g>
</g>
<g>
</g>
<g>
</g>
<g>
</g>
<g>
</g>
<g>
</g>
<g>
</g>
<g>
</g>
<g>
</g>
<g>
</g>
<g>
</g>
<g>
</g>
</svg>
