<?xml version="1.0" encoding="iso-8859-1"?>
<!-- Generator: Adobe Illustrator 19.0.0, SVG Export Plug-In . SVG Version: 6.00 Build 0)  -->
<svg xmlns="http://www.w3.org/2000/svg" xmlns:xlink="http://www.w3.org/1999/xlink" version="1.1" id="Capa_1" x="0px" y="0px" viewBox="0 0 512 512" style="enable-background:new 0 0 512 512;" xml:space="preserve" width="212px" height="212px">
<g>
	<g>
		<path d="M493.524,205.126c0-40.217-41.95-75.908-112.621-96.204C372.509,47.49,319.7,0,256.001,0S139.493,47.49,131.099,108.922    c-70.672,20.296-112.622,55.987-112.622,96.203c0,41.129,44.257,76.448,111.908,96.086l-35.193,71.681    c-2.434,4.958-0.388,10.95,4.569,13.384c1.418,0.696,2.92,1.026,4.399,1.026c3.694,0,7.246-2.056,8.984-5.595l37.001-75.364    c5.896,1.361,11.929,2.616,18.103,3.747L89.149,468.799c-1.224,2.455-1.385,5.304-0.446,7.881c0.938,2.578,2.894,4.656,5.408,5.75    C137.963,501.499,195.456,512,256.001,512s118.038-10.501,161.889-29.57c2.515-1.094,4.471-3.172,5.408-5.75    c0.938-2.577,0.777-5.427-0.446-7.881l-79.099-158.708c6.173-1.132,12.206-2.387,18.103-3.747l37.001,75.364    c1.738,3.54,5.29,5.595,8.984,5.595c1.479,0,2.981-0.33,4.399-1.026c4.957-2.434,7.003-8.426,4.569-13.384l-35.193-71.681    C449.267,281.574,493.524,246.254,493.524,205.126z M256.001,20c53.796,0,98.363,40.256,105.169,92.225    c-26.998,22.194-64.086,34.844-102.646,34.844c-41.044,0-79.763-14.045-107.115-38.675C159.852,58.291,203.535,20,256.001,20z     M149.927,132.949c29.773,21.868,68.265,34.119,108.597,34.119c37.805,0,74.497-10.982,103.55-30.593v23.077    c-10.152,8.496-21.765,15.622-34.373,21.211c-21.013,9.317-44.792,14.362-69.177,14.362c-26.16,0-51.329-5.676-73.222-16.151    c-13.136-6.285-25.092-14.297-35.375-23.848V132.949z M400.151,468.09c-40.038,15.461-90.73,23.91-144.15,23.91    c-53.42,0-104.112-8.449-144.15-23.91l12.65-25.382c38.865,12.05,84.133,18.401,131.5,18.401c23.01,0,45.744-1.517,67.573-4.51    c5.472-0.75,9.299-5.793,8.549-11.266c-0.75-5.471-5.789-9.305-11.266-8.549c-20.932,2.869-42.753,4.324-64.856,4.324    c-44.119,0-86.185-5.722-122.446-16.568l55.407-111.171c15.959,2.149,32.652,3.543,49.908,4.101    c0.085,0.003,0.17,0.005,0.254,0.007c2.44,0.078,4.893,0.137,7.356,0.181c0.572,0.01,1.143,0.021,1.715,0.03    c2.592,0.038,5.191,0.064,7.805,0.064c2.614,0,5.213-0.026,7.805-0.064c0.572-0.009,1.144-0.02,1.715-0.03    c2.463-0.044,4.915-0.103,7.356-0.181c0.085-0.003,0.17-0.005,0.254-0.007c17.256-0.557,33.949-1.952,49.908-4.101L400.151,468.09    z M412.772,268.578c-24.239,10.933-53.199,19.005-84.859,23.854c-0.225,0.019-0.449,0.041-0.674,0.075    c-17.02,2.589-34.645,4.224-52.595,4.895c-0.243,0.009-0.485,0.019-0.728,0.028c-2.734,0.098-5.477,0.171-8.226,0.224    c-0.466,0.009-0.934,0.015-1.401,0.023c-2.757,0.045-5.52,0.075-8.289,0.075c-2.769,0-5.531-0.03-8.289-0.075    c-0.467-0.008-0.935-0.014-1.401-0.023c-2.749-0.053-5.491-0.126-8.226-0.224c-0.243-0.009-0.485-0.019-0.728-0.028    c-17.951-0.67-35.575-2.306-52.595-4.895c-0.224-0.034-0.448-0.056-0.671-0.075c-31.661-4.849-60.623-12.921-84.862-23.855    c-38.608-17.415-60.752-40.542-60.752-63.453c0-18.884,14.646-34.181,26.932-43.688c15.974-12.36,38.097-23.069,64.518-31.29    v29.244c0,2.337,0.818,4.588,2.294,6.373c0.211,0.255,0.435,0.5,0.672,0.735c9.872,9.77,21.204,18.219,33.617,25.21    c26.848,15.123,58.769,23.416,92.015,23.416c15.641,0,31.083-1.876,45.87-5.462c28.23-6.847,54.073-19.928,74.352-38.094    c2.118-1.897,3.328-4.605,3.328-7.449v-33.973c26.421,8.22,48.544,18.93,64.517,31.29c12.287,9.507,26.933,24.804,26.933,43.688    C473.524,228.036,451.381,251.163,412.772,268.578z" fill="#5a2b81"/>
	</g>
</g>
<g>
	<g>
		<path d="M191.001,217.144c-16.91,0-30.667,13.757-30.667,30.667c0,16.91,13.757,30.667,30.667,30.667    c16.91,0,30.667-13.757,30.667-30.667C221.668,230.901,207.911,217.144,191.001,217.144z M191.001,258.478    c-5.882,0-10.667-4.785-10.667-10.667c0-5.881,4.785-10.667,10.667-10.667c5.882,0,10.667,4.785,10.667,10.667    C201.668,253.692,196.883,258.478,191.001,258.478z" fill="#5a2b81"/>
	</g>
</g>
<g>
	<g>
		<path d="M321.001,217.144c-16.91,0-30.667,13.757-30.667,30.667c0,16.91,13.757,30.667,30.667,30.667    c16.91,0,30.667-13.757,30.667-30.667C351.668,230.901,337.911,217.144,321.001,217.144z M321.001,258.478    c-5.882,0-10.667-4.785-10.667-10.667c0-5.881,4.785-10.667,10.667-10.667c5.882,0,10.667,4.785,10.667,10.667    C331.668,253.692,326.883,258.478,321.001,258.478z" fill="#5a2b81"/>
	</g>
</g>
<g>
	<g>
		<path d="M414.611,162.586c-16.91,0-30.667,13.757-30.667,30.667s13.757,30.667,30.667,30.667s30.667-13.757,30.667-30.667    C445.277,176.343,431.522,162.586,414.611,162.586z M414.611,203.92c-5.882,0-10.667-4.785-10.667-10.667    s4.785-10.667,10.667-10.667c5.882,0,10.667,4.785,10.667,10.667C425.278,199.135,420.493,203.92,414.611,203.92z" fill="#5a2b81"/>
	</g>
</g>
<g>
	<g>
		<path d="M97.391,162.586c-16.91,0-30.667,13.757-30.667,30.667S80.48,223.92,97.391,223.92s30.667-13.757,30.667-30.667    C128.058,176.343,114.3,162.586,97.391,162.586z M97.391,203.92c-5.882,0-10.667-4.785-10.667-10.667s4.785-10.667,10.667-10.667    s10.667,4.785,10.667,10.667S103.272,203.92,97.391,203.92z" fill="#5a2b81"/>
	</g>
</g>
<g>
	<g>
		<path d="M364.42,439.03c-0.13-0.64-0.32-1.26-0.57-1.87c-0.25-0.6-0.56-1.18-0.92-1.72c-0.37-0.55-0.78-1.06-1.24-1.53    c-2.33-2.32-5.779-3.38-9.029-2.73c-0.641,0.13-1.271,0.32-1.87,0.57c-0.601,0.25-1.181,0.56-1.73,0.92    c-0.54,0.37-1.05,0.78-1.51,1.24c-0.47,0.47-0.88,0.98-1.25,1.53c-0.36,0.54-0.67,1.12-0.92,1.72c-0.25,0.61-0.44,1.23-0.57,1.87    c-0.13,0.65-0.2,1.3-0.2,1.96c0,0.65,0.07,1.31,0.2,1.95s0.32,1.27,0.57,1.87c0.25,0.61,0.56,1.19,0.92,1.73    c0.37,0.55,0.78,1.06,1.25,1.52c0.46,0.46,0.97,0.88,1.51,1.24c0.55,0.36,1.13,0.67,1.73,0.92c0.6,0.25,1.229,0.44,1.87,0.57    c0.649,0.13,1.3,0.2,1.96,0.2c2.63,0,5.21-1.07,7.069-2.93c0.46-0.46,0.87-0.97,1.24-1.52c0.36-0.54,0.67-1.12,0.92-1.73    c0.25-0.6,0.44-1.23,0.57-1.87c0.13-0.64,0.2-1.3,0.2-1.95C364.62,440.33,364.55,439.68,364.42,439.03z" fill="#5a2b81"/>
	</g>
</g>
<g>
	<g>
		<path d="M433.941,408.56c-0.131-0.64-0.321-1.27-0.571-1.87c-0.25-0.6-0.561-1.19-0.92-1.73c-0.36-0.55-0.78-1.06-1.24-1.52    c-0.46-0.46-0.97-0.88-1.521-1.24c-0.54-0.36-1.12-0.67-1.729-0.92c-0.601-0.25-1.23-0.44-1.87-0.57c-1.29-0.26-2.61-0.26-3.91,0    c-0.63,0.13-1.26,0.32-1.87,0.57c-0.6,0.25-1.18,0.56-1.72,0.92c-0.55,0.36-1.06,0.78-1.521,1.24c-0.46,0.46-0.88,0.97-1.25,1.52    c-0.359,0.54-0.67,1.13-0.92,1.73c-0.25,0.6-0.439,1.23-0.569,1.87s-0.19,1.3-0.19,1.95c0,2.64,1.07,5.21,2.93,7.07    c0.461,0.46,0.971,0.88,1.521,1.25c0.54,0.36,1.12,0.67,1.72,0.92c0.61,0.25,1.24,0.44,1.87,0.57c0.65,0.13,1.311,0.19,1.96,0.19    c0.65,0,1.311-0.06,1.95-0.19c0.639-0.13,1.27-0.32,1.87-0.57c0.609-0.25,1.189-0.56,1.729-0.92c0.551-0.37,1.061-0.79,1.521-1.25    c1.859-1.86,2.93-4.43,2.93-7.07C434.142,409.86,434.072,409.2,433.941,408.56z" fill="#5a2b81"/>
	</g>
</g>
<g>
	<g>
		<path d="M97.67,408.56c-0.13-0.64-0.32-1.27-0.57-1.87c-0.25-0.61-0.56-1.19-0.92-1.73c-0.37-0.54-0.79-1.06-1.25-1.52    c-0.46-0.46-0.97-0.88-1.52-1.24c-0.54-0.36-1.12-0.67-1.721-0.92c-0.609-0.25-1.239-0.44-1.87-0.57c-1.3-0.26-2.619-0.26-3.909,0    c-0.641,0.13-1.271,0.32-1.87,0.57c-0.61,0.25-1.19,0.56-1.73,0.92c-0.55,0.36-1.06,0.78-1.52,1.24    c-0.46,0.46-0.88,0.97-1.24,1.52c-0.36,0.54-0.67,1.12-0.92,1.73c-0.25,0.6-0.44,1.23-0.57,1.87s-0.2,1.3-0.2,1.95    c0,0.66,0.07,1.31,0.2,1.96c0.13,0.64,0.32,1.26,0.57,1.87c0.25,0.6,0.56,1.18,0.92,1.72c0.36,0.55,0.78,1.06,1.24,1.52    c0.46,0.47,0.97,0.88,1.52,1.25c0.54,0.36,1.12,0.67,1.73,0.92c0.6,0.25,1.229,0.44,1.87,0.57c0.64,0.13,1.3,0.19,1.949,0.19    c0.65,0,1.311-0.06,1.96-0.19c0.631-0.13,1.261-0.32,1.87-0.57c0.601-0.25,1.181-0.56,1.721-0.92c0.55-0.37,1.06-0.78,1.52-1.25    c0.46-0.46,0.88-0.97,1.25-1.52c0.36-0.54,0.67-1.12,0.92-1.72c0.25-0.61,0.44-1.24,0.57-1.87c0.13-0.65,0.189-1.3,0.189-1.96    C97.86,409.86,97.8,409.2,97.67,408.56z" fill="#5a2b81"/>
	</g>
</g>
<g>
</g>
<g>
</g>
<g>
</g>
<g>
</g>
<g>
</g>
<g>
</g>
<g>
</g>
<g>
</g>
<g>
</g>
<g>
</g>
<g>
</g>
<g>
</g>
<g>
</g>
<g>
</g>
<g>
</g>
</svg>
